ply
format ascii 1.0
element vertex 576
property float x
property float y
property float z
property float nx
property float ny
property float nz
property uchar red
property uchar green
property uchar blue
element face 192
property list uchar int vertex_indices
end_header
0.0000 0.9657 0.0000 -0.500 0.000 0.866 150 150 150
0.0000 0.8928 0.0000 -0.500 0.000 0.866 150 150 150
0.2511 1.1201 0.1450 -0.500 0.000 0.866 150 150 150
0.0000 0.9657 0.0000 0.007 0.679 -0.735 150 150 150
0.2511 1.1201 0.1450 0.007 0.679 -0.735 150 150 150
0.2251 0.9634 0.0000 0.007 0.679 -0.735 150 150 150
0.0000 0.8928 0.0000 0.866 0.000 -0.500 150 150 150
0.0000 1.1036 0.0000 0.866 0.000 -0.500 150 150 150
0.0883 0.8463 0.1529 0.866 0.000 -0.500 150 150 150
0.0000 0.8928 0.0000 -0.713 0.440 0.546 150 150 150
0.0883 0.8463 0.1529 -0.713 0.440 0.546 150 150 150
0.2511 1.1201 0.1450 -0.713 0.440 0.546 150 150 150
0.0000 1.1036 0.0000 -1.000 0.000 0.000 150 150 150
0.0000 0.8597 0.0000 -1.000 0.000 0.000 150 150 150
0.0000 0.8850 0.1926 -1.000 0.000 0.000 150 150 150
0.0000 1.1036 0.0000 0.531 0.560 0.636 150 150 150
0.0000 0.8850 0.1926 0.531 0.560 0.636 150 150 150
0.0883 0.8463 0.1529 0.531 0.560 0.636 150 150 150
0.0000 0.8597 0.0000 0.866 -0.000 0.500 150 150 150
0.0000 1.0551 0.0000 0.866 -0.000 0.500 150 150 150
-0.1289 1.0424 0.2233 0.866 -0.000 0.500 150 150 150
0.0000 0.8597 0.0000 0.763 0.641 -0.084 150 150 150
-0.1289 1.0424 0.2233 0.763 0.641 -0.084 150 150 150
0.0000 0.8850 0.1926 0.763 0.641 -0.084 150 150 150
0.0000 1.0551 0.0000 -0.500 -0.000 -0.866 150 150 150
0.0000 0.9834 0.0000 -0.500 -0.000 -0.866 150 150 150
-0.2680 1.1672 0.1547 -0.500 -0.000 -0.866 150 150 150
0.0000 1.0551 0.0000 0.525 0.777 0.347 150 150 150
-0.2680 1.1672 0.1547 0.525 0.777 0.347 150 150 150
-0.1289 1.0424 0.2233 0.525 0.777 0.347 150 150 150
0.0000 0.9834 0.0000 -0.000 -0.000 -1.000 150 150 150
0.0000 0.8537 0.0000 -0.000 -0.000 -1.000 150 150 150
-0.2497 1.0228 0.0000 -0.000 -0.000 -1.000 150 150 150
0.0000 0.9834 0.0000 0.116 0.733 -0.670 150 150 150
-0.2497 1.0228 0.0000 0.116 0.733 -0.670 150 150 150
-0.2680 1.1672 0.1547 0.116 0.733 -0.670 150 150 150
0.0000 0.8537 0.0000 -0.500 0.000 0.866 150 150 150
0.0000 1.0431 0.0000 -0.500 0.000 0.866 150 150 150
-0.1910 0.9526 -0.1103 -0.500 0.000 0.866 150 150 150
0.0000 0.8537 0.0000 0.547 0.807 -0.223 150 150 150
-0.1910 0.9526 -0.1103 0.547 0.807 -0.223 150 150 150
-0.2497 1.0228 0.0000 0.547 0.807 -0.223 150 150 150
0.0000 1.0431 0.0000 0.866 0.000 -0.500 150 150 150
0.0000 0.8450 0.0000 0.866 0.000 -0.500 150 150 150
-0.1571 1.1783 -0.2720 0.866 0.000 -0.500 150 150 150
0.0000 1.0431 0.0000 -0.598 0.524 0.606 150 150 150
-0.1571 1.1783 -0.2720 -0.598 0.524 0.606 150 150 150
-0.1910 0.9526 -0.1103 -0.598 0.524 0.606 150 150 150
0.0000 0.8450 0.0000 -1.000 0.000 0.000 150 150 150
0.0000 1.0120 0.0000 -1.000 0.000 0.000 150 150 150
-0.0000 0.8162 -0.1641 -1.000 0.000 0.000 150 150 150
0.0000 0.8450 0.0000 0.922 0.380 -0.067 150 150 150
-0.0000 0.8162 -0.1641 0.922 0.380 -0.067 150 150 150
-0.1571 1.1783 -0.2720 0.922 0.380 -0.067 150 150 150
0.0000 1.0120 0.0000 0.866 0.000 0.500 150 150 150
0.0000 0.8587 0.0000 0.866 0.000 0.500 150 150 150
0.1475 1.1324 -0.2556 0.866 0.000 0.500 150 150 150
0.0000 1.0120 0.0000 -0.880 0.305 -0.364 150 150 150
0.1475 1.1324 -0.2556 -0.880 0.305 -0.364 150 150 150
-0.0000 0.8162 -0.1641 -0.880 0.305 -0.364 150 150 150
0.0000 0.8587 0.0000 -0.500 0.000 -0.866 150 150 150
0.0000 0.8674 0.0000 -0.500 0.000 -0.866 150 150 150
0.1761 0.9109 -0.1017 -0.500 0.000 -0.866 150 150 150
0.0000 0.8587 0.0000 0.276 0.572 0.772 150 150 150
0.1761 0.9109 -0.1017 0.276 0.572 0.772 150 150 150
0.1475 1.1324 -0.2556 0.276 0.572 0.772 150 150 150
0.0000 0.8674 0.0000 0.000 0.000 -1.000 150 150 150
0.0000 0.9657 0.0000 0.000 0.000 -1.000 150 150 150
0.2251 0.9634 0.0000 0.000 0.000 -1.000 150 150 150
0.0000 0.8674 0.0000 -0.377 0.884 -0.275 150 150 150
0.2251 0.9634 0.0000 -0.377 0.884 -0.275 150 150 150
0.1761 0.9109 -0.1017 -0.377 0.884 -0.275 150 150 150
0.2251 0.9634 0.0000 0.967 0.066 -0.245 150 150 150
0.2511 1.1201 0.1450 0.967 0.066 -0.245 150 150 150
0.2810 0.7445 0.1622 0.967 0.066 -0.245 150 150 150
0.2251 0.9634 0.0000 0.853 0.433 0.291 150 150 150
0.2810 0.7445 0.1622 0.853 0.433 0.291 150 150 150
0.3324 0.7524 0.0000 0.853 0.433 0.291 150 150 150
0.2511 1.1201 0.1450 -0.722 0.445 0.530 150 150 150
0.0883 0.8463 0.1529 -0.722 0.445 0.530 150 150 150
0.1907 0.8013 0.3302 -0.722 0.445 0.530 150 150 150
0.2511 1.1201 0.1450 0.890 0.091 0.448 150 150 150
0.1907 0.8013 0.3302 0.890 0.091 0.448 150 150 150
0.2810 0.7445 0.1622 0.890 0.091 0.448 150 150 150
0.0883 0.8463 0.1529 0.324 0.928 -0.185 150 150 150
0.0000 0.8850 0.1926 0.324 0.928 -0.185 150 150 150
0.0000 0.9526 0.5326 0.324 0.928 -0.185 150 150 150
0.0883 0.8463 0.1529 0.547 0.830 -0.105 150 150 150
0.0000 0.9526 0.5326 0.547 0.830 -0.105 150 150 150
0.1907 0.8013 0.3302 0.547 0.830 -0.105 150 150 150
0.0000 0.8850 0.1926 0.421 0.171 0.891 150 150 150
-0.1289 1.0424 0.2233 0.421 0.171 0.891 150 150 150
-0.1716 0.7632 0.2972 0.421 0.171 0.891 150 150 150
0.0000 0.8850 0.1926 -0.632 0.760 -0.151 150 150 150
-0.1716 0.7632 0.2972 -0.632 0.760 -0.151 150 150 150
0.0000 0.9526 0.5326 -0.632 0.760 -0.151 150 150 150
-0.1289 1.0424 0.2233 -0.165 0.327 0.930 150 150 150
-0.2680 1.1672 0.1547 -0.165 0.327 0.930 150 150 150
-0.4007 0.8827 0.2314 -0.165 0.327 0.930 150 150 150
-0.1289 1.0424 0.2233 -0.132 0.273 0.953 150 150 150
-0.4007 0.8827 0.2314 -0.132 0.273 0.953 150 150 150
-0.1716 0.7632 0.2972 -0.132 0.273 0.953 150 150 150
-0.2680 1.1672 0.1547 -0.354 0.663 -0.660 150 150 150
-0.2497 1.0228 0.0000 -0.354 0.663 -0.660 150 150 150
-0.4798 0.8998 0.0000 -0.354 0.663 -0.660 150 150 150
-0.2680 1.1672 0.1547 -0.824 0.470 0.316 150 150 150
-0.4798 0.8998 0.0000 -0.824 0.470 0.316 150 150 150
-0.4007 0.8827 0.2314 -0.824 0.470 0.316 150 150 150
-0.2497 1.0228 0.0000 -0.272 0.739 -0.616 150 150 150
-0.1910 0.9526 -0.1103 -0.272 0.739 -0.616 150 150 150
-0.3467 0.8204 -0.2002 -0.272 0.739 -0.616 150 150 150
-0.2497 1.0228 0.0000 -0.393 0.735 -0.553 150 150 150
-0.3467 0.8204 -0.2002 -0.393 0.735 -0.553 150 150 150
-0.4798 0.8998 0.0000 -0.393 0.735 -0.553 150 150 150
-0.1910 0.9526 -0.1103 -0.978 0.195 0.067 150 150 150
-0.1571 1.1783 -0.2720 -0.978 0.195 0.067 150 150 150
-0.2263 0.8726 -0.3920 -0.978 0.195 0.067 150 150 150
-0.1910 0.9526 -0.1103 -0.587 0.795 -0.152 150 150 150
-0.2263 0.8726 -0.3920 -0.587 0.795 -0.152 150 150 150
-0.3467 0.8204 -0.2002 -0.587 0.795 -0.152 150 150 150
-0.1571 1.1783 -0.2720 0.919 0.337 -0.206 150 150 150
-0.0000 0.8162 -0.1641 0.919 0.337 -0.206 150 150 150
-0.0000 0.7281 -0.3081 0.919 0.337 -0.206 150 150 150
-0.1571 1.1783 -0.2720 0.464 0.230 -0.855 150 150 150
-0.0000 0.7281 -0.3081 0.464 0.230 -0.855 150 150 150
-0.2263 0.8726 -0.3920 0.464 0.230 -0.855 150 150 150
-0.0000 0.8162 -0.1641 -0.547 0.013 -0.837 150 150 150
0.1475 1.1324 -0.2556 -0.547 0.013 -0.837 150 150 150
0.1536 0.7271 -0.2660 -0.547 0.013 -0.837 150 150 150
-0.0000 0.8162 -0.1641 0.147 0.844 -0.516 150 150 150
0.1536 0.7271 -0.2660 0.147 0.844 -0.516 150 150 150
-0.0000 0.7281 -0.3081 0.147 0.844 -0.516 150 150 150
0.1475 1.1324 -0.2556 0.758 0.435 0.486 150 150 150
0.1761 0.9109 -0.1017 0.758 0.435 0.486 150 150 150
0.3038 0.7707 -0.1754 0.758 0.435 0.486 150 150 150
0.1475 1.1324 -0.2556 0.510 0.030 -0.860 150 150 150
0.3038 0.7707 -0.1754 0.510 0.030 -0.860 150 150 150
0.1536 0.7271 -0.2660 0.510 0.030 -0.860 150 150 150
0.1761 0.9109 -0.1017 0.743 0.377 -0.553 150 150 150
0.2251 0.9634 0.0000 0.743 0.377 -0.553 150 150 150
0.3324 0.7524 0.0000 0.743 0.377 -0.553 150 150 150
0.1761 0.9109 -0.1017 0.726 0.686 -0.046 150 150 150
0.3324 0.7524 0.0000 0.726 0.686 -0.046 150 150 150
0.3038 0.7707 -0.1754 0.726 0.686 -0.046 150 150 150
0.3324 0.7524 0.0000 0.378 0.911 0.164 150 150 150
0.2810 0.7445 0.1622 0.378 0.911 0.164 150 150 150
0.4716 0.6456 0.2723 0.378 0.911 0.164 150 150 150
0.3324 0.7524 0.0000 0.200 0.943 0.267 150 150 150
0.4716 0.6456 0.2723 0.200 0.943 0.267 150 150 150
0.6431 0.6864 0.0000 0.200 0.943 0.267 150 150 150
0.2810 0.7445 0.1622 0.837 0.461 0.294 150 150 150
0.1907 0.8013 0.3302 0.837 0.461 0.294 150 150 150
0.2502 0.6273 0.4334 0.837 0.461 0.294 150 150 150
0.2810 0.7445 0.1622 0.224 0.885 0.408 150 150 150
0.2502 0.6273 0.4334 0.224 0.885 0.408 150 150 150
0.4716 0.6456 0.2723 0.224 0.885 0.408 150 150 150
0.1907 0.8013 0.3302 0.775 0.159 0.611 150 150 150
0.0000 0.9526 0.5326 0.775 0.159 0.611 150 150 150
0.0000 0.6711 0.6061 0.775 0.159 0.611 150 150 150
0.1907 0.8013 0.3302 0.535 0.559 0.634 150 150 150
0.0000 0.6711 0.6061 0.535 0.559 0.634 150 150 150
0.2502 0.6273 0.4334 0.535 0.559 0.634 150 150 150
0.0000 0.9526 0.5326 -0.737 0.676 -0.006 150 150 150
-0.1716 0.7632 0.2972 -0.737 0.676 -0.006 150 150 150
-0.2773 0.6497 0.4803 -0.737 0.676 -0.006 150 150 150
0.0000 0.9526 0.5326 -0.417 0.230 0.880 150 150 150
-0.2773 0.6497 0.4803 -0.417 0.230 0.880 150 150 150
0.0000 0.6711 0.6061 -0.417 0.230 0.880 150 150 150
-0.1716 0.7632 0.2972 -0.234 0.085 0.969 150 150 150
-0.4007 0.8827 0.2314 -0.234 0.085 0.969 150 150 150
-0.4285 0.6250 0.2474 -0.234 0.085 0.969 150 150 150
-0.1716 0.7632 0.2972 -0.496 0.837 0.233 150 150 150
-0.4285 0.6250 0.2474 -0.496 0.837 0.233 150 150 150
-0.2773 0.6497 0.4803 -0.496 0.837 0.233 150 150 150
-0.4007 0.8827 0.2314 -0.658 0.700 0.277 150 150 150
-0.4798 0.8998 0.0000 -0.658 0.700 0.277 150 150 150
-0.6875 0.7048 0.0000 -0.658 0.700 0.277 150 150 150
-0.4007 0.8827 0.2314 -0.667 0.118 0.736 150 150 150
-0.6875 0.7048 0.0000 -0.667 0.118 0.736 150 150 150
-0.4285 0.6250 0.2474 -0.667 0.118 0.736 150 150 150
-0.4798 0.8998 0.0000 -0.229 0.843 -0.487 150 150 150
-0.3467 0.8204 -0.2002 -0.229 0.843 -0.487 150 150 150
-0.5632 0.6894 -0.3252 -0.229 0.843 -0.487 150 150 150
-0.4798 0.8998 0.0000 -0.656 0.699 -0.284 150 150 150
-0.5632 0.6894 -0.3252 -0.656 0.699 -0.284 150 150 150
-0.6875 0.7048 0.0000 -0.656 0.699 -0.284 150 150 150
-0.3467 0.8204 -0.2002 -0.853 0.070 -0.517 150 150 150
-0.2263 0.8726 -0.3920 -0.853 0.070 -0.517 150 150 150
-0.2366 0.6160 -0.4097 -0.853 0.070 -0.517 150 150 150
-0.3467 0.8204 -0.2002 -0.023 0.710 -0.704 150 150 150
-0.2366 0.6160 -0.4097 -0.023 0.710 -0.704 150 150 150
-0.5632 0.6894 -0.3252 -0.023 0.710 -0.704 150 150 150
-0.2263 0.8726 -0.3920 0.573 0.804 -0.161 150 150 150
-0.0000 0.7281 -0.3081 0.573 0.804 -0.161 150 150 150
-0.0000 0.6693 -0.6018 0.573 0.804 -0.161 150 150 150
-0.2263 0.8726 -0.3920 -0.639 0.078 -0.765 150 150 150
-0.0000 0.6693 -0.6018 -0.639 0.078 -0.765 150 150 150
-0.2366 0.6160 -0.4097 -0.639 0.078 -0.765 150 150 150
-0.0000 0.7281 -0.3081 0.069 0.971 -0.228 150 150 150
0.1536 0.7271 -0.2660 0.069 0.971 -0.228 150 150 150
0.2913 0.6613 -0.5046 0.069 0.971 -0.228 150 150 150
-0.0000 0.7281 -0.3081 0.092 0.976 -0.195 150 150 150
0.2913 0.6613 -0.5046 0.092 0.976 -0.195 150 150 150
-0.0000 0.6693 -0.6018 0.092 0.976 -0.195 150 150 150
0.1536 0.7271 -0.2660 -0.053 0.931 -0.360 150 150 150
0.3038 0.7707 -0.1754 -0.053 0.931 -0.360 150 150 150
0.6226 0.7178 -0.3595 -0.053 0.931 -0.360 150 150 150
0.1536 0.7271 -0.2660 -0.038 0.958 -0.286 150 150 150
0.6226 0.7178 -0.3595 -0.038 0.958 -0.286 150 150 150
0.2913 0.6613 -0.5046 -0.038 0.958 -0.286 150 150 150
0.3038 0.7707 -0.1754 0.207 0.976 0.069 150 150 150
0.3324 0.7524 0.0000 0.207 0.976 0.069 150 150 150
0.6431 0.6864 0.0000 0.207 0.976 0.069 150 150 150
0.3038 0.7707 -0.1754 0.205 0.976 0.074 150 150 150
0.6431 0.6864 0.0000 0.205 0.976 0.074 150 150 150
0.6226 0.7178 -0.3595 0.205 0.976 0.074 150 150 150
0.6431 0.6864 0.0000 0.849 -0.062 0.525 150 150 150
0.4716 0.6456 0.2723 0.849 -0.062 0.525 150 150 150
0.4595 0.4200 0.2653 0.849 -0.062 0.525 150 150 150
0.6431 0.6864 0.0000 0.704 0.195 0.683 150 150 150
0.4595 0.4200 0.2653 0.704 0.195 0.683 150 150 150
0.7167 0.4200 0.0000 0.704 0.195 0.683 150 150 150
0.4716 0.6456 0.2723 0.271 0.841 0.468 150 150 150
0.2502 0.6273 0.4334 0.271 0.841 0.468 150 150 150
0.4112 0.4200 0.7123 0.271 0.841 0.468 150 150 150
0.4716 0.6456 0.2723 0.993 -0.057 0.107 150 150 150
0.4112 0.4200 0.7123 0.993 -0.057 0.107 150 150 150
0.4595 0.4200 0.2653 0.993 -0.057 0.107 150 150 150
0.2502 0.6273 0.4334 0.452 -0.451 0.769 150 150 150
0.0000 0.6711 0.6061 0.452 -0.451 0.769 150 150 150
0.0000 0.4200 0.4590 0.452 -0.451 0.769 150 150 150
0.2502 0.6273 0.4334 -0.422 0.594 0.685 150 150 150
0.0000 0.4200 0.4590 -0.422 0.594 0.685 150 150 150
0.4112 0.4200 0.7123 -0.422 0.594 0.685 150 150 150
0.0000 0.6711 0.6061 -0.418 0.133 0.899 150 150 150
-0.2773 0.6497 0.4803 -0.418 0.133 0.899 150 150 150
-0.2927 0.4200 0.5070 -0.418 0.133 0.899 150 150 150
0.0000 0.6711 0.6061 0.140 -0.501 0.854 150 150 150
-0.2927 0.4200 0.5070 0.140 -0.501 0.854 150 150 150
0.0000 0.4200 0.4590 0.140 -0.501 0.854 150 150 150
-0.2773 0.6497 0.4803 -0.587 0.751 0.301 150 150 150
-0.4285 0.6250 0.2474 -0.587 0.751 0.301 150 150 150
-0.6308 0.4200 0.3642 -0.587 0.751 0.301 150 150 150
-0.2773 0.6497 0.4803 -0.386 0.132 0.913 150 150 150
-0.6308 0.4200 0.3642 -0.386 0.132 0.913 150 150 150
-0.2927 0.4200 0.5070 -0.386 0.132 0.913 150 150 150
-0.4285 0.6250 0.2474 -0.672 -0.506 0.541 150 150 150
-0.6875 0.7048 0.0000 -0.672 -0.506 0.541 150 150 150
-0.4733 0.4200 0.0000 -0.672 -0.506 0.541 150 150 150
-0.4285 0.6250 0.2474 -0.759 0.562 -0.328 150 150 150
-0.4733 0.4200 0.0000 -0.759 0.562 -0.328 150 150 150
-0.6308 0.4200 0.3642 -0.759 0.562 -0.328 150 150 150
-0.6875 0.7048 0.0000 -0.929 -0.127 -0.349 150 150 150
-0.5632 0.6894 -0.3252 -0.929 -0.127 -0.349 150 150 150
-0.5329 0.4200 -0.3077 -0.929 -0.127 -0.349 150 150 150
-0.6875 0.7048 0.0000 -0.790 -0.594 0.153 150 150 150
-0.5329 0.4200 -0.3077 -0.790 -0.594 0.153 150 150 150
-0.4733 0.4200 0.0000 -0.790 -0.594 0.153 150 150 150
-0.5632 0.6894 -0.3252 -0.292 -0.230 -0.928 150 150 150
-0.2366 0.6160 -0.4097 -0.292 -0.230 -0.928 150 150 150
-0.2129 0.4200 -0.3687 -0.292 -0.230 -0.928 150 150 150
-0.5632 0.6894 -0.3252 -0.187 -0.085 -0.979 150 150 150
-0.2129 0.4200 -0.3687 -0.187 -0.085 -0.979 150 150 150
-0.5329 0.4200 -0.3077 -0.187 -0.085 -0.979 150 150 150
-0.2366 0.6160 -0.4097 -0.643 0.258 -0.721 150 150 150
-0.0000 0.6693 -0.6018 -0.643 0.258 -0.721 150 150 150
-0.0000 0.4200 -0.6909 -0.643 0.258 -0.721 150 150 150
-0.2366 0.6160 -0.4097 -0.816 -0.211 -0.539 150 150 150
-0.0000 0.4200 -0.6909 -0.816 -0.211 -0.539 150 150 150
-0.2129 0.4200 -0.3687 -0.816 -0.211 -0.539 150 150 150
-0.0000 0.6693 -0.6018 0.283 0.519 -0.807 150 150 150
0.2913 0.6613 -0.5046 0.283 0.519 -0.807 150 150 150
0.3658 0.4200 -0.6335 0.283 0.519 -0.807 150 150 150
-0.0000 0.6693 -0.6018 0.146 0.333 -0.932 150 150 150
0.3658 0.4200 -0.6335 0.146 0.333 -0.932 150 150 150
-0.0000 0.4200 -0.6909 0.146 0.333 -0.932 150 150 150
0.2913 0.6613 -0.5046 0.421 -0.185 -0.888 150 150 150
0.6226 0.7178 -0.3595 0.421 -0.185 -0.888 150 150 150
0.5636 0.4200 -0.3254 0.421 -0.185 -0.888 150 150 150
0.2913 0.6613 -0.5046 0.738 0.481 -0.474 150 150 150
0.5636 0.4200 -0.3254 0.738 0.481 -0.474 150 150 150
0.3658 0.4200 -0.6335 0.738 0.481 -0.474 150 150 150
0.6226 0.7178 -0.3595 0.963 0.266 -0.032 150 150 150
0.6431 0.6864 0.0000 0.963 0.266 -0.032 150 150 150
0.7167 0.4200 0.0000 0.963 0.266 -0.032 150 150 150
0.6226 0.7178 -0.3595 0.882 -0.222 -0.415 150 150 150
0.7167 0.4200 0.0000 0.882 -0.222 -0.415 150 150 150
0.5636 0.4200 -0.3254 0.882 -0.222 -0.415 150 150 150
0.7167 0.4200 0.0000 0.711 -0.141 0.689 150 150 150
0.4595 0.4200 0.2653 0.711 -0.141 0.689 150 150 150
0.4332 0.2128 0.2501 0.711 -0.141 0.689 150 150 150
0.7167 0.4200 0.0000 0.659 0.005 0.752 150 150 150
0.4332 0.2128 0.2501 0.659 0.005 0.752 150 150 150
0.7191 0.1222 0.0000 0.659 0.005 0.752 150 150 150
0.4595 0.4200 0.2653 0.929 -0.356 0.100 150 150 150
0.4112 0.4200 0.7123 0.929 -0.356 0.100 150 150 150
0.3244 0.1512 0.5619 0.929 -0.356 0.100 150 150 150
0.4595 0.4200 0.2653 0.943 -0.142 0.301 150 150 150
0.3244 0.1512 0.5619 0.943 -0.142 0.301 150 150 150
0.4332 0.2128 0.2501 0.943 -0.142 0.301 150 150 150
0.4112 0.4200 0.7123 -0.468 0.453 0.759 150 150 150
0.0000 0.4200 0.4590 -0.468 0.453 0.759 150 150 150
0.0000 0.1675 0.6096 -0.468 0.453 0.759 150 150 150
0.4112 0.4200 0.7123 0.100 -0.510 0.854 150 150 150
0.0000 0.1675 0.6096 0.100 -0.510 0.854 150 150 150
0.3244 0.1512 0.5619 0.100 -0.510 0.854 150 150 150
0.0000 0.4200 0.4590 0.162 0.057 0.985 150 150 150
-0.2927 0.4200 0.5070 0.162 0.057 0.985 150 150 150
-0.3020 0.1698 0.5230 0.162 0.057 0.985 150 150 150
0.0000 0.4200 0.4590 -0.235 0.498 0.835 150 150 150
-0.3020 0.1698 0.5230 -0.235 0.498 0.835 150 150 150
0.0000 0.1675 0.6096 -0.235 0.498 0.835 150 150 150
-0.2927 0.4200 0.5070 -0.334 -0.513 0.790 150 150 150
-0.6308 0.4200 0.3642 -0.334 -0.513 0.790 150 150 150
-0.4813 0.1898 0.2779 -0.334 -0.513 0.790 150 150 150
-0.2927 0.4200 0.5070 -0.803 0.067 0.593 150 150 150
-0.4813 0.1898 0.2779 -0.803 0.067 0.593 150 150 150
-0.3020 0.1698 0.5230 -0.803 0.067 0.593 150 150 150
-0.6308 0.4200 0.3642 -0.742 0.589 -0.321 150 150 150
-0.4733 0.4200 0.0000 -0.742 0.589 -0.321 150 150 150
-0.7052 0.1279 0.0000 -0.742 0.589 -0.321 150 150 150
-0.6308 0.4200 0.3642 -0.563 -0.585 0.584 150 150 150
-0.7052 0.1279 0.0000 -0.563 -0.585 0.584 150 150 150
-0.4813 0.1898 0.2779 -0.563 -0.585 0.584 150 150 150
-0.4733 0.4200 0.0000 -0.935 0.304 0.181 150 150 150
-0.5329 0.4200 -0.3077 -0.935 0.304 0.181 150 150 150
-0.6461 0.1110 -0.3730 -0.935 0.304 0.181 150 150 150
-0.4733 0.4200 0.0000 -0.774 0.615 -0.151 150 150 150
-0.6461 0.1110 -0.3730 -0.774 0.615 -0.151 150 150 150
-0.7052 0.1279 0.0000 -0.774 0.615 -0.151 150 150 150
-0.5329 0.4200 -0.3077 -0.164 0.485 -0.859 150 150 150
-0.2129 0.4200 -0.3687 -0.164 0.485 -0.859 150 150 150
-0.2814 0.1869 -0.4873 -0.164 0.485 -0.859 150 150 150
-0.5329 0.4200 -0.3077 -0.343 0.313 -0.886 150 150 150
-0.2814 0.1869 -0.4873 -0.343 0.313 -0.886 150 150 150
-0.6461 0.1110 -0.3730 -0.343 0.313 -0.886 150 150 150
-0.2129 0.4200 -0.3687 -0.829 -0.113 -0.548 150 150 150
-0.0000 0.4200 -0.6909 -0.829 -0.113 -0.548 150 150 150
-0.0000 0.1563 -0.6367 -0.829 -0.113 -0.548 150 150 150
-0.2129 0.4200 -0.3687 -0.361 0.505 -0.784 150 150 150
-0.0000 0.1563 -0.6367 -0.361 0.505 -0.784 150 150 150
-0.2814 0.1869 -0.4873 -0.361 0.505 -0.784 150 150 150
-0.0000 0.4200 -0.6909 0.074 -0.880 -0.470 150 150 150
0.3658 0.4200 -0.6335 0.074 -0.880 -0.470 150 150 150
0.2008 0.2536 -0.3479 0.074 -0.880 -0.470 150 150 150
-0.0000 0.4200 -0.6909 0.833 -0.111 -0.542 150 150 150
0.2008 0.2536 -0.3479 0.833 -0.111 -0.542 150 150 150
-0.0000 0.1563 -0.6367 0.833 -0.111 -0.542 150 150 150
0.3658 0.4200 -0.6335 0.842 0.002 -0.540 150 150 150
0.5636 0.4200 -0.3254 0.842 0.002 -0.540 150 150 150
0.5640 0.1502 -0.3256 0.842 0.002 -0.540 150 150 150
0.3658 0.4200 -0.6335 -0.191 -0.796 -0.574 150 150 150
0.5640 0.1502 -0.3256 -0.191 -0.796 -0.574 150 150 150
0.2008 0.2536 -0.3479 -0.191 -0.796 -0.574 150 150 150
0.5636 0.4200 -0.3254 0.905 0.007 -0.426 150 150 150
0.7167 0.4200 0.0000 0.905 0.007 -0.426 150 150 150
0.7191 0.1222 0.0000 0.905 0.007 -0.426 150 150 150
0.5636 0.4200 -0.3254 0.903 0.002 -0.430 150 150 150
0.7191 0.1222 0.0000 0.903 0.002 -0.430 150 150 150
0.5640 0.1502 -0.3256 0.903 0.002 -0.430 150 150 150
0.7191 0.1222 0.0000 0.681 0.212 0.701 150 150 150
0.4332 0.2128 0.2501 0.681 0.212 0.701 150 150 150
0.5070 -0.1654 0.2927 0.681 0.212 0.701 150 150 150
0.7191 0.1222 0.0000 0.584 -0.749 -0.313 150 150 150
0.5070 -0.1654 0.2927 0.584 -0.749 -0.313 150 150 150
0.4823 -0.0623 0.0000 0.584 -0.749 -0.313 150 150 150
0.4332 0.2128 0.2501 0.919 -0.296 0.262 150 150 150
0.3244 0.1512 0.5619 0.919 -0.296 0.262 150 150 150
0.2672 -0.1144 0.4628 0.919 -0.296 0.262 150 150 150
0.4332 0.2128 0.2501 0.595 0.204 0.778 150 150 150
0.2672 -0.1144 0.4628 0.595 0.204 0.778 150 150 150
0.5070 -0.1654 0.2927 0.595 0.204 0.778 150 150 150
0.3244 0.1512 0.5619 0.023 -0.888 0.459 150 150 150
0.0000 0.1675 0.6096 0.023 -0.888 0.459 150 150 150
0.0000 0.0458 0.3742 0.023 -0.888 0.459 150 150 150
0.3244 0.1512 0.5619 -0.429 -0.233 0.873 150 150 150
0.0000 0.0458 0.3742 -0.429 -0.233 0.873 150 150 150
0.2672 -0.1144 0.4628 -0.429 -0.233 0.873 150 150 150
0.0000 0.1675 0.6096 -0.177 -0.783 0.596 150 150 150
-0.3020 0.1698 0.5230 -0.177 -0.783 0.596 150 150 150
-0.2022 0.0156 0.3502 -0.177 -0.783 0.596 150 150 150
0.0000 0.1675 0.6096 0.078 -0.886 0.458 150 150 150
-0.2022 0.0156 0.3502 0.078 -0.886 0.458 150 150 150
0.0000 0.0458 0.3742 0.078 -0.886 0.458 150 150 150
-0.3020 0.1698 0.5230 -0.791 -0.250 0.558 150 150 150
-0.4813 0.1898 0.2779 -0.791 -0.250 0.558 150 150 150
-0.4232 -0.0687 0.2443 -0.791 -0.250 0.558 150 150 150
-0.3020 0.1698 0.5230 -0.027 -0.754 0.657 150 150 150
-0.4232 -0.0687 0.2443 -0.027 -0.754 0.657 150 150 150
-0.2022 0.0156 0.3502 -0.027 -0.754 0.657 150 150 150
-0.4813 0.1898 0.2779 -0.009 -0.974 0.225 150 150 150
-0.7052 0.1279 0.0000 -0.009 -0.974 0.225 150 150 150
-0.2961 0.1239 0.0000 -0.009 -0.974 0.225 150 150 150
-0.4813 0.1898 0.2779 -0.839 -0.120 -0.531 150 150 150
-0.2961 0.1239 0.0000 -0.839 -0.120 -0.531 150 150 150
-0.4232 -0.0687 0.2443 -0.839 -0.120 -0.531 150 150 150
-0.7052 0.1279 0.0000 -0.383 -0.923 -0.019 150 150 150
-0.6461 0.1110 -0.3730 -0.383 -0.923 -0.019 150 150 150
-0.3698 -0.0070 -0.2135 -0.383 -0.923 -0.019 150 150 150
-0.7052 0.1279 0.0000 -0.008 -0.851 0.525 150 150 150
-0.3698 -0.0070 -0.2135 -0.008 -0.851 0.525 150 150 150
-0.2961 0.1239 0.0000 -0.008 -0.851 0.525 150 150 150
-0.6461 0.1110 -0.3730 0.026 -0.869 -0.493 150 150 150
-0.2814 0.1869 -0.4873 0.026 -0.869 -0.493 150 150 150
-0.1697 0.0806 -0.2940 0.026 -0.869 -0.493 150 150 150
-0.6461 0.1110 -0.3730 0.062 -0.748 -0.660 150 150 150
-0.1697 0.0806 -0.2940 0.062 -0.748 -0.660 150 150 150
-0.3698 -0.0070 -0.2135 0.062 -0.748 -0.660 150 150 150
-0.2814 0.1869 -0.4873 -0.204 -0.961 -0.186 150 150 150
-0.0000 0.1563 -0.6367 -0.204 -0.961 -0.186 150 150 150
-0.0000 0.0957 -0.3243 -0.204 -0.961 -0.186 150 150 150
-0.2814 0.1869 -0.4873 -0.007 -0.878 -0.479 150 150 150
-0.0000 0.0957 -0.3243 -0.007 -0.878 -0.479 150 150 150
-0.1697 0.0806 -0.2940 -0.007 -0.878 -0.479 150 150 150
-0.0000 0.1563 -0.6367 0.785 -0.488 -0.382 150 150 150
0.2008 0.2536 -0.3479 0.785 -0.488 -0.382 150 150 150
0.1535 0.1131 -0.2658 0.785 -0.488 -0.382 150 150 150
-0.0000 0.1563 -0.6367 0.180 -0.966 -0.187 150 150 150
0.1535 0.1131 -0.2658 0.180 -0.966 -0.187 150 150 150
-0.0000 0.0957 -0.3243 0.180 -0.966 -0.187 150 150 150
0.2008 0.2536 -0.3479 -0.013 -0.253 -0.967 150 150 150
0.5640 0.1502 -0.3256 -0.013 -0.253 -0.967 150 150 150
0.4489 -0.0984 -0.2592 -0.013 -0.253 -0.967 150 150 150
0.2008 0.2536 -0.3479 -0.276 -0.413 -0.868 150 150 150
0.4489 -0.0984 -0.2592 -0.276 -0.413 -0.868 150 150 150
0.1535 0.1131 -0.2658 -0.276 -0.413 -0.868 150 150 150
0.5640 0.1502 -0.3256 0.578 -0.742 -0.339 150 150 150
0.7191 0.1222 0.0000 0.578 -0.742 -0.339 150 150 150
0.4823 -0.0623 0.0000 0.578 -0.742 -0.339 150 150 150
0.5640 0.1502 -0.3256 0.900 -0.432 -0.056 150 150 150
0.4823 -0.0623 0.0000 0.900 -0.432 -0.056 150 150 150
0.4489 -0.0984 -0.2592 0.900 -0.432 -0.056 150 150 150
0.4823 -0.0623 0.0000 -0.124 -0.939 -0.320 150 150 150
0.5070 -0.1654 0.2927 -0.124 -0.939 -0.320 150 150 150
0.1702 -0.0545 0.0983 -0.124 -0.939 -0.320 150 150 150
0.4823 -0.0623 0.0000 -0.157 -0.890 -0.429 150 150 150
0.1702 -0.0545 0.0983 -0.157 -0.890 -0.429 150 150 150
0.1775 -0.0084 0.0000 -0.157 -0.890 -0.429 150 150 150
0.5070 -0.1654 0.2927 -0.156 -0.985 0.075 150 150 150
0.2672 -0.1144 0.4628 -0.156 -0.985 0.075 150 150 150
0.1098 -0.1103 0.1902 -0.156 -0.985 0.075 150 150 150
0.5070 -0.1654 0.2927 0.013 -0.859 -0.513 150 150 150
0.1098 -0.1103 0.1902 0.013 -0.859 -0.513 150 150 150
0.1702 -0.0545 0.0983 0.013 -0.859 -0.513 150 150 150
0.2672 -0.1144 0.4628 -0.414 -0.199 0.888 150 150 150
0.0000 0.0458 0.3742 -0.414 -0.199 0.888 150 150 150
0.0000 -0.2975 0.2972 -0.414 -0.199 0.888 150 150 150
0.2672 -0.1144 0.4628 0.674 -0.623 -0.398 150 150 150
0.0000 -0.2975 0.2972 0.674 -0.623 -0.398 150 150 150
0.1098 -0.1103 0.1902 0.674 -0.623 -0.398 150 150 150
0.0000 0.0458 0.3742 0.135 -0.986 0.103 150 150 150
-0.2022 0.0156 0.3502 0.135 -0.986 0.103 150 150 150
-0.0848 0.0106 0.1469 0.135 -0.986 0.103 150 150 150
0.0000 0.0458 0.3742 -0.930 -0.081 0.359 150 150 150
-0.0848 0.0106 0.1469 -0.930 -0.081 0.359 150 150 150
0.0000 -0.2975 0.2972 -0.930 -0.081 0.359 150 150 150
-0.2022 0.0156 0.3502 0.066 -0.843 0.533 150 150 150
-0.4232 -0.0687 0.2443 0.066 -0.843 0.533 150 150 150
-0.1984 -0.1330 0.1145 0.066 -0.843 0.533 150 150 150
-0.2022 0.0156 0.3502 0.671 -0.622 0.403 150 150 150
-0.1984 -0.1330 0.1145 0.671 -0.622 0.403 150 150 150
-0.0848 0.0106 0.1469 0.671 -0.622 0.403 150 150 150
-0.4232 -0.0687 0.2443 -0.828 -0.142 -0.543 150 150 150
-0.2961 0.1239 0.0000 -0.828 -0.142 -0.543 150 150 150
-0.2452 -0.1721 0.0000 -0.828 -0.142 -0.543 150 150 150
-0.4232 -0.0687 0.2443 -0.068 -0.936 0.347 150 150 150
-0.2452 -0.1721 0.0000 -0.068 -0.936 0.347 150 150 150
-0.1984 -0.1330 0.1145 -0.068 -0.936 0.347 150 150 150
-0.2961 0.1239 0.0000 -0.868 -0.230 0.441 150 150 150
-0.3698 -0.0070 -0.2135 -0.868 -0.230 0.441 150 150 150
-0.2590 -0.3021 -0.1496 -0.868 -0.230 0.441 150 150 150
-0.2961 0.1239 0.0000 -0.959 -0.165 0.232 150 150 150
-0.2590 -0.3021 -0.1496 -0.959 -0.165 0.232 150 150 150
-0.2452 -0.1721 0.0000 -0.959 -0.165 0.232 150 150 150
-0.3698 -0.0070 -0.2135 -0.317 -0.138 -0.938 150 150 150
-0.1697 0.0806 -0.2940 -0.317 -0.138 -0.938 150 150 150
-0.1444 -0.2772 -0.2501 -0.317 -0.138 -0.938 150 150 150
-0.3698 -0.0070 -0.2135 -0.565 -0.372 -0.737 150 150 150
-0.1444 -0.2772 -0.2501 -0.565 -0.372 -0.737 150 150 150
-0.2590 -0.3021 -0.1496 -0.565 -0.372 -0.737 150 150 150
-0.1697 0.0806 -0.2940 -0.169 -0.071 -0.983 150 150 150
-0.0000 0.0957 -0.3243 -0.169 -0.071 -0.983 150 150 150
-0.0000 -0.2946 -0.2960 -0.169 -0.071 -0.983 150 150 150
-0.1697 0.0806 -0.2940 -0.315 -0.138 -0.939 150 150 150
-0.0000 -0.2946 -0.2960 -0.315 -0.138 -0.939 150 150 150
-0.1444 -0.2772 -0.2501 -0.315 -0.138 -0.939 150 150 150
-0.0000 0.0957 -0.3243 0.357 -0.504 -0.786 150 150 150
0.1535 0.1131 -0.2658 0.357 -0.504 -0.786 150 150 150
0.1008 -0.0665 -0.1745 0.357 -0.504 -0.786 150 150 150
-0.0000 0.0957 -0.3243 0.807 -0.043 -0.589 150 150 150
0.1008 -0.0665 -0.1745 0.807 -0.043 -0.589 150 150 150
-0.0000 -0.2946 -0.2960 0.807 -0.043 -0.589 150 150 150
0.1535 0.1131 -0.2658 -0.381 -0.555 -0.740 150 150 150
0.4489 -0.0984 -0.2592 -0.381 -0.555 -0.740 150 150 150
0.1936 -0.1198 -0.1118 -0.381 -0.555 -0.740 150 150 150
0.1535 0.1131 -0.2658 0.270 -0.498 -0.824 150 150 150
0.1936 -0.1198 -0.1118 0.270 -0.498 -0.824 150 150 150
0.1008 -0.0665 -0.1745 0.270 -0.498 -0.824 150 150 150
0.4489 -0.0984 -0.2592 -0.172 -0.972 0.158 150 150 150
0.4823 -0.0623 0.0000 -0.172 -0.972 0.158 150 150 150
0.1775 -0.0084 0.0000 -0.172 -0.972 0.158 150 150 150
0.4489 -0.0984 -0.2592 0.435 -0.605 0.666 150 150 150
0.1775 -0.0084 0.0000 0.435 -0.605 0.666 150 150 150
0.1936 -0.1198 -0.1118 0.435 -0.605 0.666 150 150 150
0.1775 -0.0084 0.0000 0.885 -0.444 -0.143 150 150 150
0.1702 -0.0545 0.0983 0.885 -0.444 -0.143 150 150 150
0.0000 -0.3620 0.0000 0.885 -0.444 -0.143 150 150 150
0.1775 -0.0084 0.0000 0.000 -0.000 -1.000 150 150 150
0.0000 -0.3620 0.0000 0.000 -0.000 -1.000 150 150 150
0.0000 -0.1405 0.0000 0.000 -0.000 -1.000 150 150 150
0.1702 -0.0545 0.0983 0.834 -0.492 0.249 150 150 150
0.1098 -0.1103 0.1902 0.834 -0.492 0.249 150 150 150
0.0000 -0.3930 0.0000 0.834 -0.492 0.249 150 150 150
0.1702 -0.0545 0.0983 0.500 -0.000 -0.866 150 150 150
0.0000 -0.3930 0.0000 0.500 -0.000 -0.866 150 150 150
0.0000 -0.3620 0.0000 0.500 -0.000 -0.866 150 150 150
0.1098 -0.1103 0.1902 0.572 -0.633 -0.521 150 150 150
0.0000 -0.2975 0.2972 0.572 -0.633 -0.521 150 150 150
0.0000 -0.0528 0.0000 0.572 -0.633 -0.521 150 150 150
0.1098 -0.1103 0.1902 -0.866 -0.000 0.500 150 150 150
0.0000 -0.0528 0.0000 -0.866 -0.000 0.500 150 150 150
0.0000 -0.3930 0.0000 -0.866 -0.000 0.500 150 150 150
0.0000 -0.2975 0.2972 -0.869 -0.389 -0.306 150 150 150
-0.0848 0.0106 0.1469 -0.869 -0.389 -0.306 150 150 150
-0.0000 -0.0635 0.0000 -0.869 -0.389 -0.306 150 150 150
0.0000 -0.2975 0.2972 1.000 -0.000 -0.000 150 150 150
-0.0000 -0.0635 0.0000 1.000 -0.000 -0.000 150 150 150
0.0000 -0.0528 0.0000 1.000 -0.000 -0.000 150 150 150
-0.0848 0.0106 0.1469 0.509 -0.552 0.660 150 150 150
-0.1984 -0.1330 0.1145 0.509 -0.552 0.660 150 150 150
-0.0000 -0.0870 0.0000 0.509 -0.552 0.660 150 150 150
-0.0848 0.0106 0.1469 0.866 -0.000 0.500 150 150 150
-0.0000 -0.0870 0.0000 0.866 -0.000 0.500 150 150 150
-0.0000 -0.0635 0.0000 0.866 -0.000 0.500 150 150 150
-0.1984 -0.1330 0.1145 0.320 -0.929 0.186 150 150 150
-0.2452 -0.1721 0.0000 0.320 -0.929 0.186 150 150 150
-0.0000 -0.0876 0.0000 0.320 -0.929 0.186 150 150 150
-0.1984 -0.1330 0.1145 0.500 -0.000 0.866 150 150 150
-0.0000 -0.0876 0.0000 0.500 -0.000 0.866 150 150 150
-0.0000 -0.0870 0.0000 0.500 -0.000 0.866 150 150 150
-0.2452 -0.1721 0.0000 -0.066 -0.750 0.658 150 150 150
-0.2590 -0.3021 -0.1496 -0.066 -0.750 0.658 150 150 150
-0.0000 -0.1937 -0.0000 -0.066 -0.750 0.658 150 150 150
-0.2452 -0.1721 0.0000 0.000 -0.000 1.000 150 150 150
-0.0000 -0.1937 -0.0000 0.000 -0.000 1.000 150 150 150
-0.0000 -0.0876 0.0000 0.000 -0.000 1.000 150 150 150
-0.2590 -0.3021 -0.1496 0.230 -0.973 0.021 150 150 150
-0.1444 -0.2772 -0.2501 0.230 -0.973 0.021 150 150 150
-0.0000 -0.2376 -0.0000 0.230 -0.973 0.021 150 150 150
-0.2590 -0.3021 -0.1496 -0.500 -0.000 0.866 150 150 150
-0.0000 -0.2376 -0.0000 -0.500 -0.000 0.866 150 150 150
-0.0000 -0.1937 -0.0000 -0.500 -0.000 0.866 150 150 150
-0.1444 -0.2772 -0.2501 0.074 -0.833 0.548 150 150 150
-0.0000 -0.2946 -0.2960 0.074 -0.833 0.548 150 150 150
-0.0000 -0.1000 -0.0000 0.074 -0.833 0.548 150 150 150
-0.1444 -0.2772 -0.2501 0.866 -0.000 -0.500 150 150 150
-0.0000 -0.1000 -0.0000 0.866 -0.000 -0.500 150 150 150
-0.0000 -0.2376 -0.0000 0.866 -0.000 -0.500 150 150 150
-0.0000 -0.2946 -0.2960 0.583 -0.567 0.582 150 150 150
0.1008 -0.0665 -0.1745 0.583 -0.567 0.582 150 150 150
0.0000 0.0091 -0.0000 0.583 -0.567 0.582 150 150 150
-0.0000 -0.2946 -0.2960 1.000 -0.000 -0.000 150 150 150
0.0000 0.0091 -0.0000 1.000 -0.000 -0.000 150 150 150
-0.0000 -0.1000 -0.0000 1.000 -0.000 -0.000 150 150 150
0.1008 -0.0665 -0.1745 -0.114 -0.834 -0.540 150 150 150
0.1936 -0.1198 -0.1118 -0.114 -0.834 -0.540 150 150 150
0.0000 -0.1658 -0.0000 -0.114 -0.834 -0.540 150 150 150
0.1008 -0.0665 -0.1745 -0.866 -0.000 -0.500 150 150 150
0.0000 -0.1658 -0.0000 -0.866 -0.000 -0.500 150 150 150
0.0000 0.0091 -0.0000 -0.866 -0.000 -0.500 150 150 150
0.1936 -0.1198 -0.1118 0.447 -0.601 0.663 150 150 150
0.1775 -0.0084 0.0000 0.447 -0.601 0.663 150 150 150
0.0000 -0.1405 0.0000 0.447 -0.601 0.663 150 150 150
0.1936 -0.1198 -0.1118 0.500 -0.000 0.866 150 150 150
0.0000 -0.1405 0.0000 0.500 -0.000 0.866 150 150 150
0.0000 -0.1658 -0.0000 0.500 -0.000 0.866 150 150 150
3 0 1 2
3 3 4 5
3 6 7 8
3 9 10 11
3 12 13 14
3 15 16 17
3 18 19 20
3 21 22 23
3 24 25 26
3 27 28 29
3 30 31 32
3 33 34 35
3 36 37 38
3 39 40 41
3 42 43 44
3 45 46 47
3 48 49 50
3 51 52 53
3 54 55 56
3 57 58 59
3 60 61 62
3 63 64 65
3 66 67 68
3 69 70 71
3 72 73 74
3 75 76 77
3 78 79 80
3 81 82 83
3 84 85 86
3 87 88 89
3 90 91 92
3 93 94 95
3 96 97 98
3 99 100 101
3 102 103 104
3 105 106 107
3 108 109 110
3 111 112 113
3 114 115 116
3 117 118 119
3 120 121 122
3 123 124 125
3 126 127 128
3 129 130 131
3 132 133 134
3 135 136 137
3 138 139 140
3 141 142 143
3 144 145 146
3 147 148 149
3 150 151 152
3 153 154 155
3 156 157 158
3 159 160 161
3 162 163 164
3 165 166 167
3 168 169 170
3 171 172 173
3 174 175 176
3 177 178 179
3 180 181 182
3 183 184 185
3 186 187 188
3 189 190 191
3 192 193 194
3 195 196 197
3 198 199 200
3 201 202 203
3 204 205 206
3 207 208 209
3 210 211 212
3 213 214 215
3 216 217 218
3 219 220 221
3 222 223 224
3 225 226 227
3 228 229 230
3 231 232 233
3 234 235 236
3 237 238 239
3 240 241 242
3 243 244 245
3 246 247 248
3 249 250 251
3 252 253 254
3 255 256 257
3 258 259 260
3 261 262 263
3 264 265 266
3 267 268 269
3 270 271 272
3 273 274 275
3 276 277 278
3 279 280 281
3 282 283 284
3 285 286 287
3 288 289 290
3 291 292 293
3 294 295 296
3 297 298 299
3 300 301 302
3 303 304 305
3 306 307 308
3 309 310 311
3 312 313 314
3 315 316 317
3 318 319 320
3 321 322 323
3 324 325 326
3 327 328 329
3 330 331 332
3 333 334 335
3 336 337 338
3 339 340 341
3 342 343 344
3 345 346 347
3 348 349 350
3 351 352 353
3 354 355 356
3 357 358 359
3 360 361 362
3 363 364 365
3 366 367 368
3 369 370 371
3 372 373 374
3 375 376 377
3 378 379 380
3 381 382 383
3 384 385 386
3 387 388 389
3 390 391 392
3 393 394 395
3 396 397 398
3 399 400 401
3 402 403 404
3 405 406 407
3 408 409 410
3 411 412 413
3 414 415 416
3 417 418 419
3 420 421 422
3 423 424 425
3 426 427 428
3 429 430 431
3 432 433 434
3 435 436 437
3 438 439 440
3 441 442 443
3 444 445 446
3 447 448 449
3 450 451 452
3 453 454 455
3 456 457 458
3 459 460 461
3 462 463 464
3 465 466 467
3 468 469 470
3 471 472 473
3 474 475 476
3 477 478 479
3 480 481 482
3 483 484 485
3 486 487 488
3 489 490 491
3 492 493 494
3 495 496 497
3 498 499 500
3 501 502 503
3 504 505 506
3 507 508 509
3 510 511 512
3 513 514 515
3 516 517 518
3 519 520 521
3 522 523 524
3 525 526 527
3 528 529 530
3 531 532 533
3 534 535 536
3 537 538 539
3 540 541 542
3 543 544 545
3 546 547 548
3 549 550 551
3 552 553 554
3 555 556 557
3 558 559 560
3 561 562 563
3 564 565 566
3 567 568 569
3 570 571 572
3 573 574 575
