ply
format ascii 1.0
element vertex 360
property float x
property float y
property float z
property float nx
property float ny
property float nz
property uchar red
property uchar green
property uchar blue
element face 120
property list uchar int vertex_indices
end_header
0.0000 0.4499 0.0000 0.588 0.000 -0.809 150 150 150
0.0000 0.5910 0.0000 0.588 0.000 -0.809 150 150 150
0.1154 0.4671 0.0839 0.588 0.000 -0.809 150 150 150
0.0000 0.4499 0.0000 0.423 0.576 -0.700 150 150 150
0.1154 0.4671 0.0839 0.423 0.576 -0.700 150 150 150
0.0932 0.3815 0.0000 0.423 0.576 -0.700 150 150 150
0.0000 0.5910 0.0000 -0.951 0.000 0.309 150 150 150
0.0000 0.5763 0.0000 -0.951 0.000 0.309 150 150 150
0.0530 0.5170 0.1631 -0.951 0.000 0.309 150 150 150
0.0000 0.5910 0.0000 0.694 0.713 0.098 150 150 150
0.0530 0.5170 0.1631 0.694 0.713 0.098 150 150 150
0.1154 0.4671 0.0839 0.694 0.713 0.098 150 150 150
0.0000 0.5763 0.0000 -0.951 -0.000 -0.309 150 150 150
0.0000 0.5344 0.0000 -0.951 -0.000 -0.309 150 150 150
-0.0316 0.3969 0.0971 -0.951 -0.000 -0.309 150 150 150
0.0000 0.5763 0.0000 -0.837 0.367 0.405 150 150 150
-0.0316 0.3969 0.0971 -0.837 0.367 0.405 150 150 150
0.0530 0.5170 0.1631 -0.837 0.367 0.405 150 150 150
0.0000 0.5344 0.0000 -0.588 -0.000 -0.809 150 150 150
0.0000 0.4637 0.0000 -0.588 -0.000 -0.809 150 150 150
-0.1614 0.5655 0.1173 -0.588 -0.000 -0.809 150 150 150
0.0000 0.5344 0.0000 0.592 0.370 0.716 150 150 150
-0.1614 0.5655 0.1173 0.592 0.370 0.716 150 150 150
-0.0316 0.3969 0.0971 0.592 0.370 0.716 150 150 150
0.0000 0.4637 0.0000 0.000 -0.000 1.000 150 150 150
0.0000 0.6187 0.0000 0.000 -0.000 1.000 150 150 150
-0.1240 0.4348 0.0000 0.000 -0.000 1.000 150 150 150
0.0000 0.4637 0.0000 -0.148 0.637 -0.757 150 150 150
-0.1240 0.4348 0.0000 -0.148 0.637 -0.757 150 150 150
-0.1614 0.5655 0.1173 -0.148 0.637 -0.757 150 150 150
0.0000 0.6187 0.0000 -0.588 0.000 0.809 150 150 150
0.0000 0.6228 0.0000 -0.588 0.000 0.809 150 150 150
-0.1004 0.4349 -0.0729 -0.588 0.000 0.809 150 150 150
0.0000 0.6187 0.0000 -0.801 0.540 -0.259 150 150 150
-0.1004 0.4349 -0.0729 -0.801 0.540 -0.259 150 150 150
-0.1240 0.4348 0.0000 -0.801 0.540 -0.259 150 150 150
0.0000 0.6228 0.0000 0.951 0.000 -0.309 150 150 150
0.0000 0.5433 0.0000 0.951 0.000 -0.309 150 150 150
-0.0304 0.3906 -0.0937 0.951 0.000 -0.309 150 150 150
0.0000 0.6228 0.0000 -0.035 0.378 -0.925 150 150 150
-0.0304 0.3906 -0.0937 -0.035 0.378 -0.925 150 150 150
-0.1004 0.4349 -0.0729 -0.035 0.378 -0.925 150 150 150
0.0000 0.5433 0.0000 0.951 0.000 0.309 150 150 150
0.0000 0.5414 0.0000 0.951 0.000 0.309 150 150 150
0.0701 0.6130 -0.2158 0.951 0.000 0.309 150 150 150
0.0000 0.5433 0.0000 -0.929 0.309 -0.202 150 150 150
0.0701 0.6130 -0.2158 -0.929 0.309 -0.202 150 150 150
-0.0304 0.3906 -0.0937 -0.929 0.309 -0.202 150 150 150
0.0000 0.5414 0.0000 0.588 0.000 0.809 150 150 150
0.0000 0.4691 0.0000 0.588 0.000 0.809 150 150 150
0.1554 0.5527 -0.1129 0.588 0.000 0.809 150 150 150
0.0000 0.5414 0.0000 0.200 0.909 0.366 150 150 150
0.1554 0.5527 -0.1129 0.200 0.909 0.366 150 150 150
0.0701 0.6130 -0.2158 0.200 0.909 0.366 150 150 150
0.0000 0.4691 0.0000 0.000 0.000 1.000 150 150 150
0.0000 0.4499 0.0000 0.000 0.000 1.000 150 150 150
0.0932 0.3815 0.0000 0.000 0.000 1.000 150 150 150
0.0000 0.4691 0.0000 0.383 0.408 0.829 150 150 150
0.0932 0.3815 0.0000 0.383 0.408 0.829 150 150 150
0.1554 0.5527 -0.1129 0.383 0.408 0.829 150 150 150
0.0932 0.3815 0.0000 0.673 0.421 -0.608 150 150 150
0.1154 0.4671 0.0839 0.673 0.421 -0.608 150 150 150
0.2460 0.3956 0.1787 0.673 0.421 -0.608 150 150 150
0.0932 0.3815 0.0000 -0.177 0.981 0.074 150 150 150
0.2460 0.3956 0.1787 -0.177 0.981 0.074 150 150 150
0.3644 0.4304 0.0000 -0.177 0.981 0.074 150 150 150
0.1154 0.4671 0.0839 0.782 -0.012 0.623 150 150 150
0.0530 0.5170 0.1631 0.782 -0.012 0.623 150 150 150
0.0521 0.3174 0.1604 0.782 -0.012 0.623 150 150 150
0.1154 0.4671 0.0839 -0.289 0.530 0.797 150 150 150
0.0521 0.3174 0.1604 -0.289 0.530 0.797 150 150 150
0.2460 0.3956 0.1787 -0.289 0.530 0.797 150 150 150
0.0530 0.5170 0.1631 -0.796 0.600 -0.073 150 150 150
-0.0316 0.3969 0.0971 -0.796 0.600 -0.073 150 150 150
-0.0733 0.3570 0.2257 -0.796 0.600 -0.073 150 150 150
0.0530 0.5170 0.1631 0.458 -0.014 0.889 150 150 150
-0.0733 0.3570 0.2257 0.458 -0.014 0.889 150 150 150
0.0521 0.3174 0.1604 0.458 -0.014 0.889 150 150 150
-0.0316 0.3969 0.0971 0.310 0.126 0.942 150 150 150
-0.1614 0.5655 0.1173 0.310 0.126 0.942 150 150 150
-0.2237 0.3797 0.1626 0.310 0.126 0.942 150 150 150
-0.0316 0.3969 0.0971 0.017 0.953 0.301 150 150 150
-0.2237 0.3797 0.1626 0.017 0.953 0.301 150 150 150
-0.0733 0.3570 0.2257 0.017 0.953 0.301 150 150 150
-0.1614 0.5655 0.1173 -0.655 0.392 -0.646 150 150 150
-0.1240 0.4348 0.0000 -0.655 0.392 -0.646 150 150 150
-0.1877 0.3284 0.0000 -0.655 0.392 -0.646 150 150 150
-0.1614 0.5655 0.1173 -0.928 0.243 -0.282 150 150 150
-0.1877 0.3284 0.0000 -0.928 0.243 -0.282 150 150 150
-0.2237 0.3797 0.1626 -0.928 0.243 -0.282 150 150 150
-0.1240 0.4348 0.0000 0.022 1.000 0.008 150 150 150
-0.1004 0.4349 -0.0729 0.022 1.000 0.008 150 150 150
-0.3093 0.4407 -0.2247 0.022 1.000 0.008 150 150 150
-0.1240 0.4348 0.0000 -0.696 0.416 0.585 150 150 150
-0.3093 0.4407 -0.2247 -0.696 0.416 0.585 150 150 150
-0.1877 0.3284 0.0000 -0.696 0.416 0.585 150 150 150
-0.1004 0.4349 -0.0729 0.441 0.842 -0.312 150 150 150
-0.0304 0.3906 -0.0937 0.441 0.842 -0.312 150 150 150
-0.0762 0.3623 -0.2344 0.441 0.842 -0.312 150 150 150
-0.1004 0.4349 -0.0729 0.284 0.890 -0.357 150 150 150
-0.0762 0.3623 -0.2344 0.284 0.890 -0.357 150 150 150
-0.3093 0.4407 -0.2247 0.284 0.890 -0.357 150 150 150
-0.0304 0.3906 -0.0937 -0.729 -0.046 -0.683 150 150 150
0.0701 0.6130 -0.2158 -0.729 -0.046 -0.683 150 150 150
0.0608 0.3336 -0.1871 -0.729 -0.046 -0.683 150 150 150
-0.0304 0.3906 -0.0937 0.288 0.917 -0.278 150 150 150
0.0608 0.3336 -0.1871 0.288 0.917 -0.278 150 150 150
-0.0762 0.3623 -0.2344 0.288 0.917 -0.278 150 150 150
0.0701 0.6130 -0.2158 0.663 0.739 -0.116 150 150 150
0.1554 0.5527 -0.1129 0.663 0.739 -0.116 150 150 150
0.2840 0.4227 -0.2063 0.663 0.739 -0.116 150 150 150
0.0701 0.6130 -0.2158 -0.045 -0.100 -0.994 150 150 150
0.2840 0.4227 -0.2063 -0.045 -0.100 -0.994 150 150 150
0.0608 0.3336 -0.1871 -0.045 -0.100 -0.994 150 150 150
0.1554 0.5527 -0.1129 -0.103 0.573 0.813 150 150 150
0.0932 0.3815 0.0000 -0.103 0.573 0.813 150 150 150
0.3644 0.4304 0.0000 -0.103 0.573 0.813 150 150 150
0.1554 0.5527 -0.1129 0.588 0.767 -0.258 150 150 150
0.3644 0.4304 0.0000 0.588 0.767 -0.258 150 150 150
0.2840 0.4227 -0.2063 0.588 0.767 -0.258 150 150 150
0.3644 0.4304 0.0000 0.611 0.597 0.521 150 150 150
0.2460 0.3956 0.1787 0.611 0.597 0.521 150 150 150
0.3519 0.2200 0.2557 0.611 0.597 0.521 150 150 150
0.3644 0.4304 0.0000 0.757 -0.522 -0.393 150 150 150
0.3519 0.2200 0.2557 0.757 -0.522 -0.393 150 150 150
0.2192 0.2200 0.0000 0.757 -0.522 -0.393 150 150 150
0.2460 0.3956 0.1787 -0.342 0.700 0.627 150 150 150
0.0521 0.3174 0.1604 -0.342 0.700 0.627 150 150 150
0.0950 0.2200 0.2924 -0.342 0.700 0.627 150 150 150
0.2460 0.3956 0.1787 0.125 0.461 0.879 150 150 150
0.0950 0.2200 0.2924 0.125 0.461 0.879 150 150 150
0.3519 0.2200 0.2557 0.125 0.461 0.879 150 150 150
0.0521 0.3174 0.1604 0.519 0.395 0.758 150 150 150
-0.0733 0.3570 0.2257 0.519 0.395 0.758 150 150 150
-0.1032 0.2200 0.3176 0.519 0.395 0.758 150 150 150
0.0521 0.3174 0.1604 0.074 0.814 0.577 150 150 150
-0.1032 0.2200 0.3176 0.074 0.814 0.577 150 150 150
0.0950 0.2200 0.2924 0.074 0.814 0.577 150 150 150
-0.0733 0.3570 0.2257 -0.386 0.007 0.922 150 150 150
-0.2237 0.3797 0.1626 -0.386 0.007 0.922 150 150 150
-0.2247 0.2200 0.1633 -0.386 0.007 0.922 150 150 150
-0.0733 0.3570 0.2257 -0.678 0.506 0.534 150 150 150
-0.2247 0.2200 0.1633 -0.678 0.506 0.534 150 150 150
-0.1032 0.2200 0.3176 -0.678 0.506 0.534 150 150 150
-0.2237 0.3797 0.1626 -0.603 0.713 -0.359 150 150 150
-0.1877 0.3284 0.0000 -0.603 0.713 -0.359 150 150 150
-0.3159 0.2200 0.0000 -0.603 0.713 -0.359 150 150 150
-0.2237 0.3797 0.1626 -0.873 0.008 0.487 150 150 150
-0.3159 0.2200 0.0000 -0.873 0.008 0.487 150 150 150
-0.2247 0.2200 0.1633 -0.873 0.008 0.487 150 150 150
-0.1877 0.3284 0.0000 -0.884 -0.358 0.300 150 150 150
-0.3093 0.4407 -0.2247 -0.884 -0.358 0.300 150 150 150
-0.1908 0.2200 -0.1386 -0.884 -0.358 0.300 150 150 150
-0.1877 0.3284 0.0000 -0.558 0.660 -0.503 150 150 150
-0.1908 0.2200 -0.1386 -0.558 0.660 -0.503 150 150 150
-0.3159 0.2200 0.0000 -0.558 0.660 -0.503 150 150 150
-0.3093 0.4407 -0.2247 -0.151 -0.333 -0.931 150 150 150
-0.0762 0.3623 -0.2344 -0.151 -0.333 -0.931 150 150 150
-0.0604 0.2200 -0.1860 -0.151 -0.333 -0.931 150 150 150
-0.3093 0.4407 -0.2247 -0.299 -0.482 -0.823 150 150 150
-0.0604 0.2200 -0.1860 -0.299 -0.482 -0.823 150 150 150
-0.1908 0.2200 -0.1386 -0.299 -0.482 -0.823 150 150 150
-0.0762 0.3623 -0.2344 0.311 0.875 -0.371 150 150 150
0.0608 0.3336 -0.1871 0.311 0.875 -0.371 150 150 150
0.1293 0.2200 -0.3979 0.311 0.875 -0.371 150 150 150
-0.0762 0.3623 -0.2344 -0.712 -0.296 -0.637 150 150 150
0.1293 0.2200 -0.3979 -0.712 -0.296 -0.637 150 150 150
-0.0604 0.2200 -0.1860 -0.712 -0.296 -0.637 150 150 150
0.0608 0.3336 -0.1871 0.037 -0.298 -0.954 150 150 150
0.2840 0.4227 -0.2063 0.037 -0.298 -0.954 150 150 150
0.2012 0.2200 -0.1462 0.037 -0.298 -0.954 150 150 150
0.0608 0.3336 -0.1871 0.650 0.737 -0.186 150 150 150
0.2012 0.2200 -0.1462 0.650 0.737 -0.186 150 150 150
0.1293 0.2200 -0.3979 0.650 0.737 -0.186 150 150 150
0.2840 0.4227 -0.2063 0.788 -0.544 -0.287 150 150 150
0.3644 0.4304 0.0000 0.788 -0.544 -0.287 150 150 150
0.2192 0.2200 0.0000 0.788 -0.544 -0.287 150 150 150
0.2840 0.4227 -0.2063 0.908 -0.404 -0.111 150 150 150
0.2192 0.2200 0.0000 0.908 -0.404 -0.111 150 150 150
0.2012 0.2200 -0.1462 0.908 -0.404 -0.111 150 150 150
0.2192 0.2200 0.0000 0.681 -0.641 -0.354 150 150 150
0.3519 0.2200 0.2557 0.681 -0.641 -0.354 150 150 150
0.1693 0.0992 0.1230 0.681 -0.641 -0.354 150 150 150
0.2192 0.2200 0.0000 0.642 0.400 0.654 150 150 150
0.1693 0.0992 0.1230 0.642 0.400 0.654 150 150 150
0.3424 0.0223 0.0000 0.642 0.400 0.654 150 150 150
0.3519 0.2200 0.2557 0.133 0.329 0.935 150 150 150
0.0950 0.2200 0.2924 0.133 0.329 0.935 150 150 150
0.1194 -0.0030 0.3673 0.133 0.329 0.935 150 150 150
0.3519 0.2200 0.2557 0.632 -0.752 -0.185 150 150 150
0.1194 -0.0030 0.3673 0.632 -0.752 -0.185 150 150 150
0.1693 0.0992 0.1230 0.632 -0.752 -0.185 150 150 150
0.0950 0.2200 0.2924 0.125 0.146 0.981 150 150 150
-0.1032 0.2200 0.3176 0.125 0.146 0.981 150 150 150
-0.1140 0.0071 0.3508 0.125 0.146 0.981 150 150 150
0.0950 0.2200 0.2924 -0.054 0.313 0.948 150 150 150
-0.1140 0.0071 0.3508 -0.054 0.313 0.948 150 150 150
0.1194 -0.0030 0.3673 -0.054 0.313 0.948 150 150 150
-0.1032 0.2200 0.3176 -0.752 0.289 0.592 150 150 150
-0.2247 0.2200 0.1633 -0.752 0.289 0.592 150 150 150
-0.2722 0.0258 0.1978 -0.752 0.289 0.592 150 150 150
-0.1032 0.2200 0.3176 -0.679 0.146 0.720 150 150 150
-0.2722 0.0258 0.1978 -0.679 0.146 0.720 150 150 150
-0.1140 0.0071 0.3508 -0.679 0.146 0.720 150 150 150
-0.2247 0.2200 0.1633 -0.869 0.100 0.485 150 150 150
-0.3159 0.2200 0.0000 -0.869 0.100 0.485 150 150 150
-0.3383 0.0247 0.0000 -0.869 0.100 0.485 150 150 150
-0.2247 0.2200 0.1633 -0.912 0.277 0.303 150 150 150
-0.3383 0.0247 0.0000 -0.912 0.277 0.303 150 150 150
-0.2722 0.0258 0.1978 -0.912 0.277 0.303 150 150 150
-0.3159 0.2200 0.0000 -0.701 0.330 -0.632 150 150 150
-0.1908 0.2200 -0.1386 -0.701 0.330 -0.632 150 150 150
-0.2394 0.0491 -0.1739 -0.701 0.330 -0.632 150 150 150
-0.3159 0.2200 0.0000 -0.871 0.100 -0.481 150 150 150
-0.2394 0.0491 -0.1739 -0.871 0.100 -0.481 150 150 150
-0.3383 0.0247 0.0000 -0.871 0.100 -0.481 150 150 150
-0.1908 0.2200 -0.1386 -0.279 0.577 -0.767 150 150 150
-0.0604 0.2200 -0.1860 -0.279 0.577 -0.767 150 150 150
-0.1022 0.0291 -0.3144 -0.279 0.577 -0.767 150 150 150
-0.1908 0.2200 -0.1386 -0.652 0.327 -0.684 150 150 150
-0.1022 0.0291 -0.3144 -0.652 0.327 -0.684 150 150 150
-0.2394 0.0491 -0.1739 -0.652 0.327 -0.684 150 150 150
-0.0604 0.2200 -0.1860 -0.568 -0.647 -0.509 150 150 150
0.1293 0.2200 -0.3979 -0.568 -0.647 -0.509 150 150 150
0.0585 0.1107 -0.1800 -0.568 -0.647 -0.509 150 150 150
-0.0604 0.2200 -0.1860 0.438 0.434 -0.787 150 150 150
0.0585 0.1107 -0.1800 0.438 0.434 -0.787 150 150 150
-0.1022 0.0291 -0.3144 0.438 0.434 -0.787 150 150 150
0.1293 0.2200 -0.3979 0.953 0.136 -0.272 150 150 150
0.2012 0.2200 -0.1462 0.953 0.136 -0.272 150 150 150
0.2197 0.0632 -0.1597 0.953 0.136 -0.272 150 150 150
0.1293 0.2200 -0.3979 -0.190 -0.852 -0.489 150 150 150
0.2197 0.0632 -0.1597 -0.190 -0.852 -0.489 150 150 150
0.0585 0.1107 -0.1800 -0.190 -0.852 -0.489 150 150 150
0.2012 0.2200 -0.1462 0.844 0.526 -0.104 150 150 150
0.2192 0.2200 0.0000 0.844 0.526 -0.104 150 150 150
0.3424 0.0223 0.0000 0.844 0.526 -0.104 150 150 150
0.2012 0.2200 -0.1462 0.802 0.144 -0.579 150 150 150
0.3424 0.0223 0.0000 0.802 0.144 -0.579 150 150 150
0.2197 0.0632 -0.1597 0.802 0.144 -0.579 150 150 150
0.3424 0.0223 0.0000 0.236 -0.640 0.731 150 150 150
0.1693 0.0992 0.1230 0.236 -0.640 0.731 150 150 150
0.0969 0.0125 0.0704 0.236 -0.640 0.731 150 150 150
0.3424 0.0223 0.0000 0.276 -0.246 0.929 150 150 150
0.0969 0.0125 0.0704 0.276 -0.246 0.929 150 150 150
0.2040 -0.1333 0.0000 0.276 -0.246 0.929 150 150 150
0.1693 0.0992 0.1230 0.932 -0.361 0.039 150 150 150
0.1194 -0.0030 0.3673 0.932 -0.361 0.039 150 150 150
0.0670 -0.1556 0.2063 0.932 -0.361 0.039 150 150 150
0.1693 0.0992 0.1230 0.811 -0.448 -0.376 150 150 150
0.0670 -0.1556 0.2063 0.811 -0.448 -0.376 150 150 150
0.0969 0.0125 0.0704 0.811 -0.448 -0.376 150 150 150
0.1194 -0.0030 0.3673 -0.080 -0.705 0.704 150 150 150
-0.1140 0.0071 0.3508 -0.080 -0.705 0.704 150 150 150
-0.0655 -0.1473 0.2017 -0.080 -0.705 0.704 150 150 150
0.1194 -0.0030 0.3673 -0.069 -0.713 0.698 150 150 150
-0.0655 -0.1473 0.2017 -0.069 -0.713 0.698 150 150 150
0.0670 -0.1556 0.2063 -0.069 -0.713 0.698 150 150 150
-0.1140 0.0071 0.3508 -0.268 -0.950 0.161 150 150 150
-0.2722 0.0258 0.1978 -0.268 -0.950 0.161 150 150 150
-0.1196 -0.0361 0.0869 -0.268 -0.950 0.161 150 150 150
-0.1140 0.0071 0.3508 -0.926 -0.368 0.080 150 150 150
-0.1196 -0.0361 0.0869 -0.926 -0.368 0.080 150 150 150
-0.0655 -0.1473 0.2017 -0.926 -0.368 0.080 150 150 150
-0.2722 0.0258 0.1978 -0.248 -0.965 0.088 150 150 150
-0.3383 0.0247 0.0000 -0.248 -0.965 0.088 150 150 150
-0.1419 -0.0258 0.0000 -0.248 -0.965 0.088 150 150 150
-0.2722 0.0258 0.1978 -0.383 -0.924 -0.012 150 150 150
-0.1419 -0.0258 0.0000 -0.383 -0.924 -0.012 150 150 150
-0.1196 -0.0361 0.0869 -0.383 -0.924 -0.012 150 150 150
-0.3383 0.0247 0.0000 -0.425 -0.831 -0.358 150 150 150
-0.2394 0.0491 -0.1739 -0.425 -0.831 -0.358 150 150 150
-0.1241 -0.0458 -0.0902 -0.425 -0.831 -0.358 150 150 150
-0.3383 0.0247 0.0000 -0.245 -0.955 0.164 150 150 150
-0.1241 -0.0458 -0.0902 -0.245 -0.955 0.164 150 150 150
-0.1419 -0.0258 0.0000 -0.245 -0.955 0.164 150 150 150
-0.2394 0.0491 -0.1739 -0.339 -0.919 -0.200 150 150 150
-0.1022 0.0291 -0.3144 -0.339 -0.919 -0.200 150 150 150
-0.0447 -0.0305 -0.1376 -0.339 -0.919 -0.200 150 150 150
-0.2394 0.0491 -0.1739 -0.206 -0.776 -0.596 150 150 150
-0.0447 -0.0305 -0.1376 -0.206 -0.776 -0.596 150 150 150
-0.1241 -0.0458 -0.0902 -0.206 -0.776 -0.596 150 150 150
-0.1022 0.0291 -0.3144 0.599 0.123 -0.791 150 150 150
0.0585 0.1107 -0.1800 0.599 0.123 -0.791 150 150 150
0.0700 -0.1723 -0.2154 0.599 0.123 -0.791 150 150 150
-0.1022 0.0291 -0.3144 -0.768 -0.640 0.034 150 150 150
0.0700 -0.1723 -0.2154 -0.768 -0.640 0.034 150 150 150
-0.0447 -0.0305 -0.1376 -0.768 -0.640 0.034 150 150 150
0.0585 0.1107 -0.1800 -0.067 -0.575 -0.816 150 150 150
0.2197 0.0632 -0.1597 -0.067 -0.575 -0.816 150 150 150
0.1171 -0.0307 -0.0851 -0.067 -0.575 -0.816 150 150 150
0.0585 0.1107 -0.1800 0.902 0.090 -0.423 150 150 150
0.1171 -0.0307 -0.0851 0.902 0.090 -0.423 150 150 150
0.0700 -0.1723 -0.2154 0.902 0.090 -0.423 150 150 150
0.2197 0.0632 -0.1597 0.599 -0.533 -0.597 150 150 150
0.3424 0.0223 0.0000 0.599 -0.533 -0.597 150 150 150
0.2040 -0.1333 0.0000 0.599 -0.533 -0.597 150 150 150
0.2197 0.0632 -0.1597 0.014 -0.631 -0.775 150 150 150
0.2040 -0.1333 0.0000 0.014 -0.631 -0.775 150 150 150
0.1171 -0.0307 -0.0851 0.014 -0.631 -0.775 150 150 150
0.2040 -0.1333 0.0000 -0.442 -0.632 0.636 150 150 150
0.0969 0.0125 0.0704 -0.442 -0.632 0.636 150 150 150
0.0000 0.0093 0.0000 -0.442 -0.632 0.636 150 150 150
0.2040 -0.1333 0.0000 -0.000 -0.000 -1.000 150 150 150
0.0000 0.0093 0.0000 -0.000 -0.000 -1.000 150 150 150
0.0000 0.0272 0.0000 -0.000 -0.000 -1.000 150 150 150
0.0969 0.0125 0.0704 0.880 -0.383 -0.280 150 150 150
0.0670 -0.1556 0.2063 0.880 -0.383 -0.280 150 150 150
0.0000 -0.1586 0.0000 0.880 -0.383 -0.280 150 150 150
0.0969 0.0125 0.0704 0.588 -0.000 -0.809 150 150 150
0.0000 -0.1586 0.0000 0.588 -0.000 -0.809 150 150 150
0.0000 0.0093 0.0000 0.588 -0.000 -0.809 150 150 150
0.0670 -0.1556 0.2063 -0.071 -0.927 0.368 150 150 150
-0.0655 -0.1473 0.2017 -0.071 -0.927 0.368 150 150 150
-0.0000 -0.2325 0.0000 -0.071 -0.927 0.368 150 150 150
0.0670 -0.1556 0.2063 0.951 -0.000 -0.309 150 150 150
-0.0000 -0.2325 0.0000 0.951 -0.000 -0.309 150 150 150
0.0000 -0.1586 0.0000 0.951 -0.000 -0.309 150 150 150
-0.0655 -0.1473 0.2017 -0.628 -0.685 -0.369 150 150 150
-0.1196 -0.0361 0.0869 -0.628 -0.685 -0.369 150 150 150
-0.0000 -0.0989 0.0000 -0.628 -0.685 -0.369 150 150 150
-0.0655 -0.1473 0.2017 -0.951 -0.000 -0.309 150 150 150
-0.0000 -0.0989 0.0000 -0.951 -0.000 -0.309 150 150 150
-0.0000 -0.2325 0.0000 -0.951 -0.000 -0.309 150 150 150
-0.1196 -0.0361 0.0869 -0.452 -0.892 0.010 150 150 150
-0.1419 -0.0258 0.0000 -0.452 -0.892 0.010 150 150 150
-0.0000 -0.0977 0.0000 -0.452 -0.892 0.010 150 150 150
-0.1196 -0.0361 0.0869 -0.588 -0.000 -0.809 150 150 150
-0.0000 -0.0977 0.0000 -0.588 -0.000 -0.809 150 150 150
-0.0000 -0.0989 0.0000 -0.588 -0.000 -0.809 150 150 150
-0.1419 -0.0258 0.0000 -0.524 -0.847 0.085 150 150 150
-0.1241 -0.0458 -0.0902 -0.524 -0.847 0.085 150 150 150
-0.0000 -0.1136 -0.0000 -0.524 -0.847 0.085 150 150 150
-0.1419 -0.0258 0.0000 -0.000 -0.000 1.000 150 150 150
-0.0000 -0.1136 -0.0000 -0.000 -0.000 1.000 150 150 150
-0.0000 -0.0977 0.0000 -0.000 -0.000 1.000 150 150 150
-0.1241 -0.0458 -0.0902 -0.243 -0.728 -0.641 150 150 150
-0.0447 -0.0305 -0.1376 -0.243 -0.728 -0.641 150 150 150
-0.0000 -0.1667 -0.0000 -0.243 -0.728 -0.641 150 150 150
-0.1241 -0.0458 -0.0902 -0.588 -0.000 0.809 150 150 150
-0.0000 -0.1667 -0.0000 -0.588 -0.000 0.809 150 150 150
-0.0000 -0.1136 -0.0000 -0.588 -0.000 0.809 150 150 150
-0.0447 -0.0305 -0.1376 -0.682 -0.688 0.248 150 150 150
0.0700 -0.1723 -0.2154 -0.682 -0.688 0.248 150 150 150
0.0000 -0.0253 -0.0000 -0.682 -0.688 0.248 150 150 150
-0.0447 -0.0305 -0.1376 0.951 -0.000 -0.309 150 150 150
0.0000 -0.0253 -0.0000 0.951 -0.000 -0.309 150 150 150
-0.0000 -0.1667 -0.0000 0.951 -0.000 -0.309 150 150 150
0.0700 -0.1723 -0.2154 0.739 -0.572 0.355 150 150 150
0.1171 -0.0307 -0.0851 0.739 -0.572 0.355 150 150 150
0.0000 -0.1293 -0.0000 0.739 -0.572 0.355 150 150 150
0.0700 -0.1723 -0.2154 -0.951 -0.000 -0.309 150 150 150
0.0000 -0.1293 -0.0000 -0.951 -0.000 -0.309 150 150 150
0.0000 -0.0253 -0.0000 -0.951 -0.000 -0.309 150 150 150
0.1171 -0.0307 -0.0851 -0.590 -0.749 -0.301 150 150 150
0.2040 -0.1333 0.0000 -0.590 -0.749 -0.301 150 150 150
0.0000 0.0272 0.0000 -0.590 -0.749 -0.301 150 150 150
0.1171 -0.0307 -0.0851 0.588 -0.000 0.809 150 150 150
0.0000 0.0272 0.0000 0.588 -0.000 0.809 150 150 150
0.0000 -0.1293 -0.0000 0.588 -0.000 0.809 150 150 150
3 0 1 2
3 3 4 5
3 6 7 8
3 9 10 11
3 12 13 14
3 15 16 17
3 18 19 20
3 21 22 23
3 24 25 26
3 27 28 29
3 30 31 32
3 33 34 35
3 36 37 38
3 39 40 41
3 42 43 44
3 45 46 47
3 48 49 50
3 51 52 53
3 54 55 56
3 57 58 59
3 60 61 62
3 63 64 65
3 66 67 68
3 69 70 71
3 72 73 74
3 75 76 77
3 78 79 80
3 81 82 83
3 84 85 86
3 87 88 89
3 90 91 92
3 93 94 95
3 96 97 98
3 99 100 101
3 102 103 104
3 105 106 107
3 108 109 110
3 111 112 113
3 114 115 116
3 117 118 119
3 120 121 122
3 123 124 125
3 126 127 128
3 129 130 131
3 132 133 134
3 135 136 137
3 138 139 140
3 141 142 143
3 144 145 146
3 147 148 149
3 150 151 152
3 153 154 155
3 156 157 158
3 159 160 161
3 162 163 164
3 165 166 167
3 168 169 170
3 171 172 173
3 174 175 176
3 177 178 179
3 180 181 182
3 183 184 185
3 186 187 188
3 189 190 191
3 192 193 194
3 195 196 197
3 198 199 200
3 201 202 203
3 204 205 206
3 207 208 209
3 210 211 212
3 213 214 215
3 216 217 218
3 219 220 221
3 222 223 224
3 225 226 227
3 228 229 230
3 231 232 233
3 234 235 236
3 237 238 239
3 240 241 242
3 243 244 245
3 246 247 248
3 249 250 251
3 252 253 254
3 255 256 257
3 258 259 260
3 261 262 263
3 264 265 266
3 267 268 269
3 270 271 272
3 273 274 275
3 276 277 278
3 279 280 281
3 282 283 284
3 285 286 287
3 288 289 290
3 291 292 293
3 294 295 296
3 297 298 299
3 300 301 302
3 303 304 305
3 306 307 308
3 309 310 311
3 312 313 314
3 315 316 317
3 318 319 320
3 321 322 323
3 324 325 326
3 327 328 329
3 330 331 332
3 333 334 335
3 336 337 338
3 339 340 341
3 342 343 344
3 345 346 347
3 348 349 350
3 351 352 353
3 354 355 356
3 357 358 359
