ply
format ascii 1.0
element vertex 720
property float x
property float y
property float z
property float nx
property float ny
property float nz
property uchar red
property uchar green
property uchar blue
element face 240
property list uchar int vertex_indices
end_header
0.0000 0.8777 0.0000 0.588 0.000 -0.809 82 140 72
0.0000 0.9044 0.0000 0.588 0.000 -0.809 82 140 72
0.1468 0.7143 0.1067 0.588 0.000 -0.809 82 140 72
0.0000 0.8777 0.0000 0.020 0.560 0.829 82 140 72
0.1468 0.7143 0.1067 0.020 0.560 0.829 82 140 72
0.2701 0.8678 0.0000 0.020 0.560 0.829 82 140 72
0.0000 0.9044 0.0000 0.951 0.000 -0.309 82 140 72
0.0000 0.9164 0.0000 0.951 0.000 -0.309 82 140 72
0.0685 0.7837 0.2107 0.951 0.000 -0.309 82 140 72
0.0000 0.9044 0.0000 0.748 0.651 0.130 82 140 72
0.0685 0.7837 0.2107 0.748 0.651 0.130 82 140 72
0.1468 0.7143 0.1067 0.748 0.651 0.130 82 140 72
0.0000 0.9164 0.0000 0.951 -0.000 0.309 82 140 72
0.0000 0.9496 0.0000 0.951 -0.000 0.309 82 140 72
-0.0607 0.7403 0.1869 0.951 -0.000 0.309 82 140 72
0.0000 0.9164 0.0000 -0.353 0.735 0.578 82 140 72
-0.0607 0.7403 0.1869 -0.353 0.735 0.578 82 140 72
0.0685 0.7837 0.2107 -0.353 0.735 0.578 82 140 72
0.0000 0.9496 0.0000 -0.588 -0.000 -0.809 82 140 72
0.0000 0.9040 0.0000 -0.588 -0.000 -0.809 82 140 72
-0.1860 0.7982 0.1351 -0.588 -0.000 -0.809 82 140 72
0.0000 0.9496 0.0000 -0.000 0.666 0.746 82 140 72
-0.1860 0.7982 0.1351 -0.000 0.666 0.746 82 140 72
-0.0607 0.7403 0.1869 -0.000 0.666 0.746 82 140 72
0.0000 0.9040 0.0000 0.000 -0.000 1.000 82 140 72
0.0000 0.9450 0.0000 0.000 -0.000 1.000 82 140 72
-0.2333 0.8041 0.0000 0.000 -0.000 1.000 82 140 72
0.0000 0.9040 0.0000 -0.387 0.905 0.175 82 140 72
-0.2333 0.8041 0.0000 -0.387 0.905 0.175 82 140 72
-0.1860 0.7982 0.1351 -0.387 0.905 0.175 82 140 72
0.0000 0.9450 0.0000 0.588 0.000 -0.809 82 140 72
0.0000 0.7440 0.0000 0.588 0.000 -0.809 82 140 72
-0.1377 0.6948 -0.1001 0.588 0.000 -0.809 82 140 72
0.0000 0.9450 0.0000 -0.296 0.491 -0.819 82 140 72
-0.1377 0.6948 -0.1001 -0.296 0.491 -0.819 82 140 72
-0.2333 0.8041 0.0000 -0.296 0.491 -0.819 82 140 72
0.0000 0.7440 0.0000 -0.951 0.000 0.309 82 140 72
0.0000 0.8423 0.0000 -0.951 0.000 0.309 82 140 72
-0.0597 0.7345 -0.1837 -0.951 0.000 0.309 82 140 72
0.0000 0.7440 0.0000 -0.385 0.920 0.077 82 140 72
-0.0597 0.7345 -0.1837 -0.385 0.920 0.077 82 140 72
-0.1377 0.6948 -0.1001 -0.385 0.920 0.077 82 140 72
0.0000 0.8423 0.0000 -0.951 0.000 -0.309 82 140 72
0.0000 0.9498 0.0000 -0.951 0.000 -0.309 82 140 72
0.0619 0.7467 -0.1904 -0.951 0.000 -0.309 82 140 72
0.0000 0.8423 0.0000 -0.114 0.873 -0.475 82 140 72
0.0619 0.7467 -0.1904 -0.114 0.873 -0.475 82 140 72
-0.0597 0.7345 -0.1837 -0.114 0.873 -0.475 82 140 72
0.0000 0.9498 0.0000 0.588 0.000 0.809 82 140 72
0.0000 0.8835 0.0000 0.588 0.000 0.809 82 140 72
0.2199 0.8708 -0.1598 0.588 0.000 0.809 82 140 72
0.0000 0.9498 0.0000 -0.323 0.593 -0.737 82 140 72
0.2199 0.8708 -0.1598 -0.323 0.593 -0.737 82 140 72
0.0619 0.7467 -0.1904 -0.323 0.593 -0.737 82 140 72
0.0000 0.8835 0.0000 0.000 0.000 1.000 82 140 72
0.0000 0.8777 0.0000 0.000 0.000 1.000 82 140 72
0.2701 0.8678 0.0000 0.000 0.000 1.000 82 140 72
0.0000 0.8835 0.0000 0.058 0.998 0.001 82 140 72
0.2701 0.8678 0.0000 0.058 0.998 0.001 82 140 72
0.2199 0.8708 -0.1598 0.058 0.998 0.001 82 140 72
0.2701 0.8678 0.0000 0.020 0.560 0.829 82 140 72
0.1468 0.7143 0.1067 0.020 0.560 0.829 82 140 72
0.2616 0.5867 0.1901 0.020 0.560 0.829 82 140 72
0.2701 0.8678 0.0000 0.561 0.452 0.693 82 140 72
0.2616 0.5867 0.1901 0.561 0.452 0.693 82 140 72
0.4415 0.6549 0.0000 0.561 0.452 0.693 82 140 72
0.1468 0.7143 0.1067 0.750 0.648 0.134 82 140 72
0.0685 0.7837 0.2107 0.750 0.648 0.134 82 140 72
0.1383 0.6584 0.4257 0.750 0.648 0.134 82 140 72
0.1468 0.7143 0.1067 0.688 0.712 0.143 82 140 72
0.1383 0.6584 0.4257 0.688 0.712 0.143 82 140 72
0.2616 0.5867 0.1901 0.688 0.712 0.143 82 140 72
0.0685 0.7837 0.2107 -0.338 0.616 0.712 82 140 72
-0.0607 0.7403 0.1869 -0.338 0.616 0.712 82 140 72
-0.0987 0.5844 0.3037 -0.338 0.616 0.712 82 140 72
0.0685 0.7837 0.2107 -0.494 0.672 0.552 82 140 72
-0.0987 0.5844 0.3037 -0.494 0.672 0.552 82 140 72
0.1383 0.6584 0.4257 -0.494 0.672 0.552 82 140 72
-0.0607 0.7403 0.1869 -0.058 0.593 0.803 82 140 72
-0.1860 0.7982 0.1351 -0.058 0.593 0.803 82 140 72
-0.3338 0.6382 0.2425 -0.058 0.593 0.803 82 140 72
-0.0607 0.7403 0.1869 -0.066 0.608 0.791 82 140 72
-0.3338 0.6382 0.2425 -0.066 0.608 0.791 82 140 72
-0.0987 0.5844 0.3037 -0.066 0.608 0.791 82 140 72
-0.1860 0.7982 0.1351 -0.885 0.335 0.324 82 140 72
-0.2333 0.8041 0.0000 -0.885 0.335 0.324 82 140 72
-0.3170 0.5830 0.0000 -0.885 0.335 0.324 82 140 72
-0.1860 0.7982 0.1351 -0.781 0.594 -0.190 82 140 72
-0.3170 0.5830 0.0000 -0.781 0.594 -0.190 82 140 72
-0.3338 0.6382 0.2425 -0.781 0.594 -0.190 82 140 72
-0.2333 0.8041 0.0000 -0.165 0.584 -0.795 82 140 72
-0.1377 0.6948 -0.1001 -0.165 0.584 -0.795 82 140 72
-0.2367 0.5689 -0.1720 -0.165 0.584 -0.795 82 140 72
-0.2333 0.8041 0.0000 -0.848 0.321 -0.422 82 140 72
-0.2367 0.5689 -0.1720 -0.848 0.321 -0.422 82 140 72
-0.3170 0.5830 0.0000 -0.848 0.321 -0.422 82 140 72
-0.1377 0.6948 -0.1001 -0.506 0.860 -0.064 82 140 72
-0.0597 0.7345 -0.1837 -0.506 0.860 -0.064 82 140 72
-0.1428 0.6668 -0.4395 -0.506 0.860 -0.064 82 140 72
-0.1377 0.6948 -0.1001 -0.774 0.632 -0.041 82 140 72
-0.1428 0.6668 -0.4395 -0.774 0.632 -0.041 82 140 72
-0.2367 0.5689 -0.1720 -0.774 0.632 -0.041 82 140 72
-0.0597 0.7345 -0.1837 -0.105 0.613 -0.783 82 140 72
0.0619 0.7467 -0.1904 -0.105 0.613 -0.783 82 140 72
0.1029 0.5923 -0.3168 -0.105 0.613 -0.783 82 140 72
-0.0597 0.7345 -0.1837 0.430 0.828 -0.359 82 140 72
0.1029 0.5923 -0.3168 0.430 0.828 -0.359 82 140 72
-0.1428 0.6668 -0.4395 0.430 0.828 -0.359 82 140 72
0.0619 0.7467 -0.1904 0.078 0.144 -0.986 82 140 72
0.2199 0.8708 -0.1598 0.078 0.144 -0.986 82 140 72
0.2704 0.5930 -0.1965 0.078 0.144 -0.986 82 140 72
0.0619 0.7467 -0.1904 0.449 0.634 -0.629 82 140 72
0.2704 0.5930 -0.1965 0.449 0.634 -0.629 82 140 72
0.1029 0.5923 -0.3168 0.449 0.634 -0.629 82 140 72
0.2199 0.8708 -0.1598 0.759 0.611 -0.227 82 140 72
0.2701 0.8678 0.0000 0.759 0.611 -0.227 82 140 72
0.4415 0.6549 0.0000 0.759 0.611 -0.227 82 140 72
0.2199 0.8708 -0.1598 0.701 0.217 -0.679 82 140 72
0.4415 0.6549 0.0000 0.701 0.217 -0.679 82 140 72
0.2704 0.5930 -0.1965 0.701 0.217 -0.679 82 140 72
0.4415 0.6549 0.0000 0.357 0.720 0.596 82 140 72
0.2616 0.5867 0.1901 0.357 0.720 0.596 82 140 72
0.4318 0.4000 0.3138 0.357 0.720 0.596 82 140 72
0.4415 0.6549 0.0000 0.853 0.392 0.345 82 140 72
0.4318 0.4000 0.3138 0.853 0.392 0.345 82 140 72
0.5585 0.4000 0.0000 0.853 0.392 0.345 82 140 72
0.2616 0.5867 0.1901 0.862 -0.128 0.490 82 140 72
0.1383 0.6584 0.4257 0.862 -0.128 0.490 82 140 72
0.1244 0.4000 0.3829 0.862 -0.128 0.490 82 140 72
0.2616 0.5867 0.1901 0.167 0.646 0.745 82 140 72
0.1244 0.4000 0.3829 0.167 0.646 0.745 82 140 72
0.4318 0.4000 0.3138 0.167 0.646 0.745 82 140 72
0.1383 0.6584 0.4257 -0.473 0.748 0.465 82 140 72
-0.0987 0.5844 0.3037 -0.473 0.748 0.465 82 140 72
-0.1711 0.4000 0.5267 -0.473 0.748 0.465 82 140 72
0.1383 0.6584 0.4257 0.431 -0.170 0.886 82 140 72
-0.1711 0.4000 0.5267 0.431 -0.170 0.886 82 140 72
0.1244 0.4000 0.3829 0.431 -0.170 0.886 82 140 72
-0.0987 0.5844 0.3037 -0.218 0.144 0.965 82 140 72
-0.3338 0.6382 0.2425 -0.218 0.144 0.965 82 140 72
-0.3712 0.4000 0.2697 -0.218 0.144 0.965 82 140 72
-0.0987 0.5844 0.3037 -0.543 0.725 0.423 82 140 72
-0.3712 0.4000 0.2697 -0.543 0.725 0.423 82 140 72
-0.1711 0.4000 0.5267 -0.543 0.725 0.423 82 140 72
-0.3338 0.6382 0.2425 -0.712 0.673 -0.203 82 140 72
-0.3170 0.5830 0.0000 -0.712 0.673 -0.203 82 140 72
-0.4900 0.4000 0.0000 -0.712 0.673 -0.203 82 140 72
-0.3338 0.6382 0.2425 -0.899 0.186 0.396 82 140 72
-0.4900 0.4000 0.0000 -0.899 0.186 0.396 82 140 72
-0.3712 0.4000 0.2697 -0.899 0.186 0.396 82 140 72
-0.3170 0.5830 0.0000 -0.785 0.470 -0.404 82 140 72
-0.2367 0.5689 -0.1720 -0.785 0.470 -0.404 82 140 72
-0.3103 0.4000 -0.2255 -0.785 0.470 -0.404 82 140 72
-0.3170 0.5830 0.0000 -0.629 0.595 -0.501 82 140 72
-0.3103 0.4000 -0.2255 -0.629 0.595 -0.501 82 140 72
-0.4900 0.4000 0.0000 -0.629 0.595 -0.501 82 140 72
-0.2367 0.5689 -0.1720 -0.947 0.179 -0.267 82 140 72
-0.1428 0.6668 -0.4395 -0.947 0.179 -0.267 82 140 72
-0.1697 0.4000 -0.5223 -0.947 0.179 -0.267 82 140 72
-0.2367 0.5689 -0.1720 -0.799 0.468 -0.378 82 140 72
-0.1697 0.4000 -0.5223 -0.799 0.468 -0.378 82 140 72
-0.3103 0.4000 -0.2255 -0.799 0.468 -0.378 82 140 72
-0.1428 0.6668 -0.4395 0.494 0.614 -0.616 82 140 72
0.1029 0.5923 -0.3168 0.494 0.614 -0.616 82 140 72
0.1523 0.4000 -0.4688 0.494 0.614 -0.616 82 140 72
-0.1428 0.6668 -0.4395 0.158 0.278 -0.947 82 140 72
0.1523 0.4000 -0.4688 0.158 0.278 -0.947 82 140 72
-0.1697 0.4000 -0.5223 0.158 0.278 -0.947 82 140 72
0.1029 0.5923 -0.3168 0.394 0.735 -0.552 82 140 72
0.2704 0.5930 -0.1965 0.394 0.735 -0.552 82 140 72
0.4490 0.4000 -0.3262 0.394 0.735 -0.552 82 140 72
0.1029 0.5923 -0.3168 0.334 0.636 -0.696 82 140 72
0.4490 0.4000 -0.3262 0.334 0.636 -0.696 82 140 72
0.1523 0.4000 -0.4688 0.334 0.636 -0.696 82 140 72
0.2704 0.5930 -0.1965 0.668 0.307 -0.678 82 140 72
0.4415 0.6549 0.0000 0.668 0.307 -0.678 82 140 72
0.5585 0.4000 0.0000 0.668 0.307 -0.678 82 140 72
0.2704 0.5930 -0.1965 0.641 0.737 -0.215 82 140 72
0.5585 0.4000 0.0000 0.641 0.737 -0.215 82 140 72
0.4490 0.4000 -0.3262 0.641 0.737 -0.215 82 140 72
0.5585 0.4000 0.0000 0.697 -0.660 0.281 82 140 72
0.4318 0.4000 0.3138 0.697 -0.660 0.281 82 140 72
0.2836 0.1976 0.2060 0.697 -0.660 0.281 82 140 72
0.5585 0.4000 0.0000 0.688 -0.235 0.687 82 140 72
0.2836 0.1976 0.2060 0.688 -0.235 0.687 82 140 72
0.4664 0.1307 0.0000 0.688 -0.235 0.687 82 140 72
0.4318 0.4000 0.3138 0.216 -0.187 0.959 82 140 72
0.1244 0.4000 0.3829 0.216 -0.187 0.959 82 140 72
0.1121 0.1906 0.3449 0.216 -0.187 0.959 82 140 72
0.4318 0.4000 0.3138 0.488 -0.661 0.570 82 140 72
0.1121 0.1906 0.3449 0.488 -0.661 0.570 82 140 72
0.2836 0.1976 0.2060 0.488 -0.661 0.570 82 140 72
0.1244 0.4000 0.3829 0.328 -0.661 0.675 82 140 72
-0.1711 0.4000 0.5267 0.328 -0.661 0.675 82 140 72
-0.1003 0.2126 0.3087 0.328 -0.661 0.675 82 140 72
0.1244 0.4000 0.3829 -0.182 -0.165 0.969 82 140 72
-0.1003 0.2126 0.3087 -0.182 -0.165 0.969 82 140 72
0.1121 0.1906 0.3449 -0.182 -0.165 0.969 82 140 72
-0.1711 0.4000 0.5267 -0.633 -0.598 0.492 82 140 72
-0.3712 0.4000 0.2697 -0.633 -0.598 0.492 82 140 72
-0.2594 0.2149 0.1885 -0.633 -0.598 0.492 82 140 72
-0.1711 0.4000 0.5267 -0.402 -0.755 0.518 82 140 72
-0.2594 0.2149 0.1885 -0.402 -0.755 0.518 82 140 72
-0.1003 0.2126 0.3087 -0.402 -0.755 0.518 82 140 72
-0.3712 0.4000 0.2697 -0.660 -0.693 0.291 82 140 72
-0.4900 0.4000 0.0000 -0.660 -0.693 0.291 82 140 72
-0.3050 0.2239 0.0000 -0.660 -0.693 0.291 82 140 72
-0.3712 0.4000 0.2697 -0.809 -0.563 0.169 82 140 72
-0.3050 0.2239 0.0000 -0.809 -0.563 0.169 82 140 72
-0.2594 0.2149 0.1885 -0.809 -0.563 0.169 82 140 72
-0.4900 0.4000 0.0000 -0.772 -0.159 -0.615 82 140 72
-0.3103 0.4000 -0.2255 -0.772 -0.159 -0.615 82 140 72
-0.2840 0.1973 -0.2063 -0.772 -0.159 -0.615 82 140 72
-0.4900 0.4000 0.0000 -0.689 -0.724 0.023 82 140 72
-0.2840 0.1973 -0.2063 -0.689 -0.724 0.023 82 140 72
-0.3050 0.2239 0.0000 -0.689 -0.724 0.023 82 140 72
-0.3103 0.4000 -0.2255 -0.838 -0.375 -0.397 82 140 72
-0.1697 0.4000 -0.5223 -0.838 -0.375 -0.397 82 140 72
-0.1266 0.1634 -0.3897 -0.838 -0.375 -0.397 82 140 72
-0.3103 0.4000 -0.2255 -0.764 -0.158 -0.626 82 140 72
-0.1266 0.1634 -0.3897 -0.764 -0.158 -0.626 82 140 72
-0.2840 0.1973 -0.2063 -0.764 -0.158 -0.626 82 140 72
-0.1697 0.4000 -0.5223 0.107 -0.760 -0.641 82 140 72
0.1523 0.4000 -0.4688 0.107 -0.760 -0.641 82 140 72
0.0905 0.2309 -0.2786 0.107 -0.760 -0.641 82 140 72
-0.1697 0.4000 -0.5223 0.511 -0.348 -0.786 82 140 72
0.0905 0.2309 -0.2786 0.511 -0.348 -0.786 82 140 72
-0.1266 0.1634 -0.3897 0.511 -0.348 -0.786 82 140 72
0.1523 0.4000 -0.4688 0.392 -0.425 -0.816 82 140 72
0.4490 0.4000 -0.3262 0.392 -0.425 -0.816 82 140 72
0.3433 0.1550 -0.2494 0.392 -0.425 -0.816 82 140 72
0.1523 0.4000 -0.4688 -0.137 -0.718 -0.683 82 140 72
0.3433 0.1550 -0.2494 -0.137 -0.718 -0.683 82 140 72
0.0905 0.2309 -0.2786 -0.137 -0.718 -0.683 82 140 72
0.4490 0.4000 -0.3262 0.902 -0.308 -0.303 82 140 72
0.5585 0.4000 0.0000 0.902 -0.308 -0.303 82 140 72
0.4664 0.1307 0.0000 0.902 -0.308 -0.303 82 140 72
0.4490 0.4000 -0.3262 0.774 -0.468 -0.427 82 140 72
0.4664 0.1307 0.0000 0.774 -0.468 -0.427 82 140 72
0.3433 0.1550 -0.2494 0.774 -0.468 -0.427 82 140 72
0.4664 0.1307 0.0000 0.425 -0.679 0.598 82 140 72
0.2836 0.1976 0.2060 0.425 -0.679 0.598 82 140 72
0.1647 0.0473 0.1197 0.425 -0.679 0.598 82 140 72
0.4664 0.1307 0.0000 0.320 -0.935 0.155 82 140 72
0.1647 0.0473 0.1197 0.320 -0.935 0.155 82 140 72
0.2068 0.0419 0.0000 0.320 -0.935 0.155 82 140 72
0.2836 0.1976 0.2060 0.595 -0.364 0.717 82 140 72
0.1121 0.1906 0.3449 0.595 -0.364 0.717 82 140 72
0.0806 -0.0518 0.2481 0.595 -0.364 0.717 82 140 72
0.2836 0.1976 0.2060 0.777 -0.629 0.024 82 140 72
0.0806 -0.0518 0.2481 0.777 -0.629 0.024 82 140 72
0.1647 0.0473 0.1197 0.777 -0.629 0.024 82 140 72
0.1121 0.1906 0.3449 -0.195 -0.455 0.869 82 140 72
-0.1003 0.2126 0.3087 -0.195 -0.455 0.869 82 140 72
-0.0689 0.0140 0.2119 -0.195 -0.455 0.869 82 140 72
0.1121 0.1906 0.3449 -0.350 -0.308 0.885 82 140 72
-0.0689 0.0140 0.2119 -0.350 -0.308 0.885 82 140 72
0.0806 -0.0518 0.2481 -0.350 -0.308 0.885 82 140 72
-0.1003 0.2126 0.3087 -0.508 -0.552 0.662 82 140 72
-0.2594 0.2149 0.1885 -0.508 -0.552 0.662 82 140 72
-0.1653 0.0462 0.1201 -0.508 -0.552 0.662 82 140 72
-0.1003 0.2126 0.3087 -0.699 -0.400 0.593 82 140 72
-0.1653 0.0462 0.1201 -0.699 -0.400 0.593 82 140 72
-0.0689 0.0140 0.2119 -0.699 -0.400 0.593 82 140 72
-0.2594 0.2149 0.1885 -0.912 -0.357 0.203 82 140 72
-0.3050 0.2239 0.0000 -0.912 -0.357 0.203 82 140 72
-0.2229 0.0139 0.0000 -0.912 -0.357 0.203 82 140 72
-0.2594 0.2149 0.1885 -0.672 -0.568 0.475 82 140 72
-0.2229 0.0139 0.0000 -0.672 -0.568 0.475 82 140 72
-0.1653 0.0462 0.1201 -0.672 -0.568 0.475 82 140 72
-0.3050 0.2239 0.0000 -0.933 -0.356 -0.049 82 140 72
-0.2840 0.1973 -0.2063 -0.933 -0.356 -0.049 82 140 72
-0.2007 -0.0296 -0.1458 -0.933 -0.356 -0.049 82 140 72
-0.3050 0.2239 0.0000 -0.931 -0.364 -0.033 82 140 72
-0.2007 -0.0296 -0.1458 -0.931 -0.364 -0.033 82 140 72
-0.2229 0.0139 0.0000 -0.931 -0.364 -0.033 82 140 72
-0.2840 0.1973 -0.2063 -0.375 -0.915 -0.152 82 140 72
-0.1266 0.1634 -0.3897 -0.375 -0.915 -0.152 82 140 72
-0.0541 0.0966 -0.1666 -0.375 -0.915 -0.152 82 140 72
-0.2840 0.1973 -0.2063 0.065 -0.235 -0.970 82 140 72
-0.0541 0.0966 -0.1666 0.065 -0.235 -0.970 82 140 72
-0.2007 -0.0296 -0.1458 0.065 -0.235 -0.970 82 140 72
-0.1266 0.1634 -0.3897 0.466 -0.046 -0.883 82 140 72
0.0905 0.2309 -0.2786 0.466 -0.046 -0.883 82 140 72
0.0860 -0.0823 -0.2648 0.466 -0.046 -0.883 82 140 72
-0.1266 0.1634 -0.3897 -0.770 -0.636 0.060 82 140 72
0.0860 -0.0823 -0.2648 -0.770 -0.636 0.060 82 140 72
-0.0541 0.0966 -0.1666 -0.770 -0.636 0.060 82 140 72
0.0905 0.2309 -0.2786 -0.184 -0.822 -0.539 82 140 72
0.3433 0.1550 -0.2494 -0.184 -0.822 -0.539 82 140 72
0.1386 0.1033 -0.1007 -0.184 -0.822 -0.539 82 140 72
0.0905 0.2309 -0.2786 0.960 -0.026 -0.278 82 140 72
0.1386 0.1033 -0.1007 0.960 -0.026 -0.278 82 140 72
0.0860 -0.0823 -0.2648 0.960 -0.026 -0.278 82 140 72
0.3433 0.1550 -0.2494 0.314 -0.918 -0.244 82 140 72
0.4664 0.1307 0.0000 0.314 -0.918 -0.244 82 140 72
0.2068 0.0419 0.0000 0.314 -0.918 -0.244 82 140 72
0.3433 0.1550 -0.2494 -0.112 -0.880 -0.461 82 140 72
0.2068 0.0419 0.0000 -0.112 -0.880 -0.461 82 140 72
0.1386 0.1033 -0.1007 -0.112 -0.880 -0.461 82 140 72
0.2068 0.0419 0.0000 0.614 -0.749 0.250 82 140 72
0.1647 0.0473 0.1197 0.614 -0.749 0.250 82 140 72
0.0000 -0.1276 0.0000 0.614 -0.749 0.250 82 140 72
0.2068 0.0419 0.0000 0.000 -0.000 -1.000 82 140 72
0.0000 -0.1276 0.0000 0.000 -0.000 -1.000 82 140 72
0.0000 -0.1062 0.0000 0.000 -0.000 -1.000 82 140 72
0.1647 0.0473 0.1197 0.281 -0.840 -0.464 82 140 72
0.0806 -0.0518 0.2481 0.281 -0.840 -0.464 82 140 72
0.0000 0.0584 0.0000 0.281 -0.840 -0.464 82 140 72
0.1647 0.0473 0.1197 -0.588 -0.000 0.809 82 140 72
0.0000 0.0584 0.0000 -0.588 -0.000 0.809 82 140 72
0.0000 -0.1276 0.0000 -0.588 -0.000 0.809 82 140 72
0.0806 -0.0518 0.2481 -0.447 -0.821 0.354 82 140 72
-0.0689 0.0140 0.2119 -0.447 -0.821 0.354 82 140 72
-0.0000 -0.1147 0.0000 -0.447 -0.821 0.354 82 140 72
0.0806 -0.0518 0.2481 0.951 -0.000 -0.309 82 140 72
-0.0000 -0.1147 0.0000 0.951 -0.000 -0.309 82 140 72
0.0000 0.0584 0.0000 0.951 -0.000 -0.309 82 140 72
-0.0689 0.0140 0.2119 -0.348 -0.937 0.037 82 140 72
-0.1653 0.0462 0.1201 -0.348 -0.937 0.037 82 140 72
-0.0000 -0.0199 0.0000 -0.348 -0.937 0.037 82 140 72
-0.0689 0.0140 0.2119 -0.951 -0.000 -0.309 82 140 72
-0.0000 -0.0199 0.0000 -0.951 -0.000 -0.309 82 140 72
-0.0000 -0.1147 0.0000 -0.951 -0.000 -0.309 82 140 72
-0.1653 0.0462 0.1201 -0.317 -0.867 0.385 82 140 72
-0.2229 0.0139 0.0000 -0.317 -0.867 0.385 82 140 72
-0.0000 -0.0677 0.0000 -0.317 -0.867 0.385 82 140 72
-0.1653 0.0462 0.1201 0.588 -0.000 0.809 82 140 72
-0.0000 -0.0677 0.0000 0.588 -0.000 0.809 82 140 72
-0.0000 -0.0199 0.0000 0.588 -0.000 0.809 82 140 72
-0.2229 0.0139 0.0000 0.194 -0.931 0.308 82 140 72
-0.2007 -0.0296 -0.1458 0.194 -0.931 0.308 82 140 72
-0.0000 0.0605 -0.0000 0.194 -0.931 0.308 82 140 72
-0.2229 0.0139 0.0000 -0.000 -0.000 -1.000 82 140 72
-0.0000 0.0605 -0.0000 -0.000 -0.000 -1.000 82 140 72
-0.0000 -0.0677 0.0000 -0.000 -0.000 -1.000 82 140 72
-0.2007 -0.0296 -0.1458 0.572 -0.727 -0.380 82 140 72
-0.0541 0.0966 -0.1666 0.572 -0.727 -0.380 82 140 72
-0.0000 0.0520 -0.0000 0.572 -0.727 -0.380 82 140 72
-0.2007 -0.0296 -0.1458 -0.588 -0.000 0.809 82 140 72
-0.0000 0.0520 -0.0000 -0.588 -0.000 0.809 82 140 72
-0.0000 0.0605 -0.0000 -0.588 -0.000 0.809 82 140 72
-0.0541 0.0966 -0.1666 -0.792 -0.611 -0.017 82 140 72
0.0860 -0.0823 -0.2648 -0.792 -0.611 -0.017 82 140 72
0.0000 0.0218 -0.0000 -0.792 -0.611 -0.017 82 140 72
-0.0541 0.0966 -0.1666 -0.951 -0.000 0.309 82 140 72
0.0000 0.0218 -0.0000 -0.951 -0.000 0.309 82 140 72
-0.0000 0.0520 -0.0000 -0.951 -0.000 0.309 82 140 72
0.0860 -0.0823 -0.2648 0.893 -0.413 0.181 82 140 72
0.1386 0.1033 -0.1007 0.893 -0.413 0.181 82 140 72
0.0000 -0.1524 -0.0000 0.893 -0.413 0.181 82 140 72
0.0860 -0.0823 -0.2648 -0.951 -0.000 -0.309 82 140 72
0.0000 -0.1524 -0.0000 -0.951 -0.000 -0.309 82 140 72
0.0000 0.0218 -0.0000 -0.951 -0.000 -0.309 82 140 72
0.1386 0.1033 -0.1007 0.435 -0.607 -0.665 82 140 72
0.2068 0.0419 0.0000 0.435 -0.607 -0.665 82 140 72
0.0000 -0.1062 0.0000 0.435 -0.607 -0.665 82 140 72
0.1386 0.1033 -0.1007 0.588 -0.000 0.809 82 140 72
0.0000 -0.1062 0.0000 0.588 -0.000 0.809 82 140 72
0.0000 -0.1524 -0.0000 0.588 -0.000 0.809 82 140 72
0.3000 0.6341 0.1000 -0.588 0.000 0.809 96 156 84
0.3000 0.6197 0.1000 -0.588 0.000 0.809 96 156 84
0.4216 0.5804 0.1884 -0.588 0.000 0.809 96 156 84
0.3000 0.6341 0.1000 0.587 0.720 -0.371 96 156 84
0.4216 0.5804 0.1884 0.587 0.720 -0.371 96 156 84
0.4233 0.5335 0.1000 0.587 0.720 -0.371 96 156 84
0.3000 0.6197 0.1000 -0.951 0.000 0.309 96 156 84
0.3000 0.5822 0.1000 -0.951 0.000 0.309 96 156 84
0.3545 0.6253 0.2677 -0.951 0.000 0.309 96 156 84
0.3000 0.6197 0.1000 0.409 0.898 -0.163 96 156 84
0.3545 0.6253 0.2677 0.409 0.898 -0.163 96 156 84
0.4216 0.5804 0.1884 0.409 0.898 -0.163 96 156 84
0.3000 0.5822 0.1000 0.951 -0.000 0.309 96 156 84
0.3000 0.6986 0.1000 0.951 -0.000 0.309 96 156 84
0.2517 0.5905 0.2485 0.951 -0.000 0.309 96 156 84
0.3000 0.5822 0.1000 -0.293 0.945 -0.148 96 156 84
0.2517 0.5905 0.2485 -0.293 0.945 -0.148 96 156 84
0.3545 0.6253 0.2677 -0.293 0.945 -0.148 96 156 84
0.3000 0.6986 0.1000 -0.588 -0.000 -0.809 96 156 84
0.3000 0.5610 0.1000 -0.588 -0.000 -0.809 96 156 84
0.1560 0.6283 0.2046 -0.588 -0.000 -0.809 96 156 84
0.3000 0.6986 0.1000 0.043 0.801 0.597 96 156 84
0.1560 0.6283 0.2046 0.043 0.801 0.597 96 156 84
0.2517 0.5905 0.2485 0.043 0.801 0.597 96 156 84
0.3000 0.5610 0.1000 0.000 -0.000 1.000 96 156 84
0.3000 0.6404 0.1000 0.000 -0.000 1.000 96 156 84
0.1674 0.5496 0.1000 0.000 -0.000 1.000 96 156 84
0.3000 0.5610 0.1000 -0.068 0.794 -0.604 96 156 84
0.1674 0.5496 0.1000 -0.068 0.794 -0.604 96 156 84
0.1560 0.6283 0.2046 -0.068 0.794 -0.604 96 156 84
0.3000 0.6404 0.1000 -0.588 0.000 0.809 96 156 84
0.3000 0.7037 0.1000 -0.588 0.000 0.809 96 156 84
0.1875 0.5608 0.0183 -0.588 0.000 0.809 96 156 84
0.3000 0.6404 0.1000 -0.565 0.825 -0.026 96 156 84
0.1875 0.5608 0.0183 -0.565 0.825 -0.026 96 156 84
0.1674 0.5496 0.1000 -0.565 0.825 -0.026 96 156 84
0.3000 0.7037 0.1000 0.951 0.000 -0.309 96 156 84
0.3000 0.5729 0.1000 0.951 0.000 -0.309 96 156 84
0.2602 0.5432 -0.0226 0.951 0.000 -0.309 96 156 84
0.3000 0.7037 0.1000 -0.261 0.626 -0.735 96 156 84
0.2602 0.5432 -0.0226 -0.261 0.626 -0.735 96 156 84
0.1875 0.5608 0.0183 -0.261 0.626 -0.735 96 156 84
0.3000 0.5729 0.1000 -0.951 0.000 -0.309 96 156 84
0.3000 0.6487 0.1000 -0.951 0.000 -0.309 96 156 84
0.3496 0.5980 -0.0526 -0.951 0.000 -0.309 96 156 84
0.3000 0.5729 0.1000 -0.530 0.847 -0.033 96 156 84
0.3496 0.5980 -0.0526 -0.530 0.847 -0.033 96 156 84
0.2602 0.5432 -0.0226 -0.530 0.847 -0.033 96 156 84
0.3000 0.6487 0.1000 -0.588 0.000 -0.809 96 156 84
0.3000 0.6587 0.1000 -0.588 0.000 -0.809 96 156 84
0.4569 0.6559 -0.0140 -0.588 0.000 -0.809 96 156 84
0.3000 0.6487 0.1000 -0.324 0.862 -0.391 96 156 84
0.4569 0.6559 -0.0140 -0.324 0.862 -0.391 96 156 84
0.3496 0.5980 -0.0526 -0.324 0.862 -0.391 96 156 84
0.3000 0.6587 0.1000 0.000 0.000 1.000 96 156 84
0.3000 0.6341 0.1000 0.000 0.000 1.000 96 156 84
0.4233 0.5335 0.1000 0.000 0.000 1.000 96 156 84
0.3000 0.6587 0.1000 0.513 0.505 0.694 96 156 84
0.4233 0.5335 0.1000 0.513 0.505 0.694 96 156 84
0.4569 0.6559 -0.0140 0.513 0.505 0.694 96 156 84
0.4233 0.5335 0.1000 0.650 0.677 -0.347 96 156 84
0.4216 0.5804 0.1884 0.650 0.677 -0.347 96 156 84
0.5549 0.5019 0.2852 0.650 0.677 -0.347 96 156 84
0.4233 0.5335 0.1000 0.268 0.963 -0.026 96 156 84
0.5549 0.5019 0.2852 0.268 0.963 -0.026 96 156 84
0.5897 0.4872 0.1000 0.268 0.963 -0.026 96 156 84
0.4216 0.5804 0.1884 0.801 0.378 0.464 96 156 84
0.3545 0.6253 0.2677 0.801 0.378 0.464 96 156 84
0.3807 0.4707 0.3482 0.801 0.378 0.464 96 156 84
0.4216 0.5804 0.1884 0.062 0.816 0.575 96 156 84
0.3807 0.4707 0.3482 0.062 0.816 0.575 96 156 84
0.5549 0.5019 0.2852 0.062 0.816 0.575 96 156 84
0.3545 0.6253 0.2677 -0.360 0.842 0.401 96 156 84
0.2517 0.5905 0.2485 -0.360 0.842 0.401 96 156 84
0.2038 0.4997 0.3960 -0.360 0.842 0.401 96 156 84
0.3545 0.6253 0.2677 0.301 0.480 0.824 96 156 84
0.2038 0.4997 0.3960 0.301 0.480 0.824 96 156 84
0.3807 0.4707 0.3482 0.301 0.480 0.824 96 156 84
0.2517 0.5905 0.2485 -0.342 0.199 0.918 96 156 84
0.1560 0.6283 0.2046 -0.342 0.199 0.918 96 156 84
0.1205 0.4481 0.2304 -0.342 0.199 0.918 96 156 84
0.2517 0.5905 0.2485 -0.735 0.657 0.166 96 156 84
0.1205 0.4481 0.2304 -0.735 0.657 0.166 96 156 84
0.2038 0.4997 0.3960 -0.735 0.657 0.166 96 156 84
0.1560 0.6283 0.2046 -0.497 0.666 -0.555 96 156 84
0.1674 0.5496 0.1000 -0.497 0.666 -0.555 96 156 84
0.0518 0.4633 0.1000 -0.497 0.666 -0.555 96 156 84
0.1560 0.6283 0.2046 -0.849 0.235 0.474 96 156 84
0.0518 0.4633 0.1000 -0.849 0.235 0.474 96 156 84
0.1205 0.4481 0.2304 -0.849 0.235 0.474 96 156 84
0.1674 0.5496 0.1000 -0.459 0.888 0.009 96 156 84
0.1875 0.5608 0.0183 -0.459 0.888 0.009 96 156 84
0.0563 0.4939 -0.0771 -0.459 0.888 0.009 96 156 84
0.1674 0.5496 0.1000 -0.594 0.795 0.123 96 156 84
0.0563 0.4939 -0.0771 -0.594 0.795 0.123 96 156 84
0.0518 0.4633 0.1000 -0.594 0.795 0.123 96 156 84
0.1875 0.5608 0.0183 0.076 0.958 -0.278 96 156 84
0.2602 0.5432 -0.0226 0.076 0.958 -0.278 96 156 84
0.2047 0.4981 -0.1933 0.076 0.958 -0.278 96 156 84
0.1875 0.5608 0.0183 -0.256 0.921 -0.294 96 156 84
0.2047 0.4981 -0.1933 -0.256 0.921 -0.294 96 156 84
0.0563 0.4939 -0.0771 -0.256 0.921 -0.294 96 156 84
0.2602 0.5432 -0.0226 -0.520 0.451 -0.726 96 156 84
0.3496 0.5980 -0.0526 -0.520 0.451 -0.726 96 156 84
0.3823 0.4737 -0.1533 -0.520 0.451 -0.726 96 156 84
0.2602 0.5432 -0.0226 0.197 0.930 -0.310 96 156 84
0.3823 0.4737 -0.1533 0.197 0.930 -0.310 96 156 84
0.2047 0.4981 -0.1933 0.197 0.930 -0.310 96 156 84
0.3496 0.5980 -0.0526 0.290 0.099 -0.952 96 156 84
0.4569 0.6559 -0.0140 0.290 0.099 -0.952 96 156 84
0.4780 0.4470 -0.0293 0.290 0.099 -0.952 96 156 84
0.3496 0.5980 -0.0526 0.717 0.543 -0.437 96 156 84
0.4780 0.4470 -0.0293 0.717 0.543 -0.437 96 156 84
0.3823 0.4737 -0.1533 0.717 0.543 -0.437 96 156 84
0.4569 0.6559 -0.0140 0.179 0.644 0.744 96 156 84
0.4233 0.5335 0.1000 0.179 0.644 0.744 96 156 84
0.5897 0.4872 0.1000 0.179 0.644 0.744 96 156 84
0.4569 0.6559 -0.0140 0.732 0.123 -0.670 96 156 84
0.5897 0.4872 0.1000 0.732 0.123 -0.670 96 156 84
0.4780 0.4470 -0.0293 0.732 0.123 -0.670 96 156 84
0.5897 0.4872 0.1000 0.959 -0.203 0.196 96 156 84
0.5549 0.5019 0.2852 0.959 -0.203 0.196 96 156 84
0.5213 0.3200 0.2608 0.959 -0.203 0.196 96 156 84
0.5897 0.4872 0.1000 0.934 -0.039 0.356 96 156 84
0.5213 0.3200 0.2608 0.934 -0.039 0.356 96 156 84
0.5827 0.3200 0.1000 0.934 -0.039 0.356 96 156 84
0.5549 0.5019 0.2852 0.311 0.157 0.937 96 156 84
0.3807 0.4707 0.3482 0.311 0.157 0.937 96 156 84
0.3881 0.3200 0.3710 0.311 0.157 0.937 96 156 84
0.5549 0.5019 0.2852 0.622 -0.216 0.752 96 156 84
0.3881 0.3200 0.3710 0.622 -0.216 0.752 96 156 84
0.5213 0.3200 0.2608 0.622 -0.216 0.752 96 156 84
0.3807 0.4707 0.3482 0.291 0.255 0.922 96 156 84
0.2038 0.4997 0.3960 0.291 0.255 0.922 96 156 84
0.1858 0.3200 0.4514 0.291 0.255 0.922 96 156 84
0.3807 0.4707 0.3482 0.365 0.157 0.918 96 156 84
0.1858 0.3200 0.4514 0.365 0.157 0.918 96 156 84
0.3881 0.3200 0.3710 0.365 0.157 0.918 96 156 84
0.2038 0.4997 0.3960 -0.875 0.352 0.331 96 156 84
0.1205 0.4481 0.2304 -0.875 0.352 0.331 96 156 84
0.0800 0.3200 0.2598 -0.875 0.352 0.331 96 156 84
0.2038 0.4997 0.3960 -0.852 0.231 0.470 96 156 84
0.0800 0.3200 0.2598 -0.852 0.231 0.470 96 156 84
0.1858 0.3200 0.4514 -0.852 0.231 0.470 96 156 84
0.1205 0.4481 0.2304 -0.663 0.619 0.421 96 156 84
0.0518 0.4633 0.1000 -0.663 0.619 0.421 96 156 84
-0.0818 0.3200 0.1000 -0.663 0.619 0.421 96 156 84
0.1205 0.4481 0.2304 -0.656 0.359 0.664 96 156 84
-0.0818 0.3200 0.1000 -0.656 0.359 0.664 96 156 84
0.0800 0.3200 0.2598 -0.656 0.359 0.664 96 156 84
0.0518 0.4633 0.1000 -0.940 0.338 0.035 96 156 84
0.0563 0.4939 -0.0771 -0.940 0.338 0.035 96 156 84
-0.0080 0.3200 -0.1238 -0.940 0.338 0.035 96 156 84
0.0518 0.4633 0.1000 -0.711 0.663 -0.235 96 156 84
-0.0080 0.3200 -0.1238 -0.711 0.663 -0.235 96 156 84
-0.0818 0.3200 0.1000 -0.711 0.663 -0.235 96 156 84
0.0563 0.4939 -0.0771 -0.583 -0.301 -0.755 96 156 84
0.2047 0.4981 -0.1933 -0.583 -0.301 -0.755 96 156 84
0.2231 0.3200 -0.1366 -0.583 -0.301 -0.755 96 156 84
0.0563 0.4939 -0.0771 -0.053 0.277 -0.959 96 156 84
0.2231 0.3200 -0.1366 -0.053 0.277 -0.959 96 156 84
-0.0080 0.3200 -0.1238 -0.053 0.277 -0.959 96 156 84
0.2047 0.4981 -0.1933 0.243 0.217 -0.945 96 156 84
0.3823 0.4737 -0.1533 0.243 0.217 -0.945 96 156 84
0.3929 0.3200 -0.1859 0.243 0.217 -0.945 96 156 84
0.2047 0.4981 -0.1933 -0.264 -0.317 -0.911 96 156 84
0.3929 0.3200 -0.1859 -0.264 -0.317 -0.911 96 156 84
0.2231 0.3200 -0.1366 -0.264 -0.317 -0.911 96 156 84
0.3823 0.4737 -0.1533 0.685 0.611 -0.397 96 156 84
0.4780 0.4470 -0.0293 0.685 0.611 -0.397 96 156 84
0.5578 0.3200 -0.0873 0.685 0.611 -0.397 96 156 84
0.3823 0.4737 -0.1533 0.501 0.213 -0.839 96 156 84
0.5578 0.3200 -0.0873 0.501 0.213 -0.839 96 156 84
0.3929 0.3200 -0.1859 0.501 0.213 -0.839 96 156 84
0.4780 0.4470 -0.0293 0.761 -0.032 -0.648 96 156 84
0.5897 0.4872 0.1000 0.761 -0.032 -0.648 96 156 84
0.5827 0.3200 0.1000 0.761 -0.032 -0.648 96 156 84
0.4780 0.4470 -0.0293 0.819 0.564 -0.109 96 156 84
0.5827 0.3200 0.1000 0.819 0.564 -0.109 96 156 84
0.5578 0.3200 -0.0873 0.819 0.564 -0.109 96 156 84
0.5827 0.3200 0.1000 0.933 -0.043 0.356 96 156 84
0.5213 0.3200 0.2608 0.933 -0.043 0.356 96 156 84
0.5158 0.1660 0.2568 0.933 -0.043 0.356 96 156 84
0.5827 0.3200 0.1000 0.855 -0.502 -0.128 96 156 84
0.5158 0.1660 0.2568 0.855 -0.502 -0.128 96 156 84
0.5111 0.1981 0.1000 0.855 -0.502 -0.128 96 156 84
0.5213 0.3200 0.2608 0.621 0.228 0.750 96 156 84
0.3881 0.3200 0.3710 0.621 0.228 0.750 96 156 84
0.4030 0.1275 0.4171 0.621 0.228 0.750 96 156 84
0.5213 0.3200 0.2608 0.822 -0.045 0.567 96 156 84
0.4030 0.1275 0.4171 0.822 -0.045 0.567 96 156 84
0.5158 0.1660 0.2568 0.822 -0.045 0.567 96 156 84
0.3881 0.3200 0.3710 0.278 -0.657 0.700 96 156 84
0.1858 0.3200 0.4514 0.278 -0.657 0.700 96 156 84
0.2310 0.1910 0.3124 0.278 -0.657 0.700 96 156 84
0.3881 0.3200 0.3710 -0.465 0.172 0.869 96 156 84
0.2310 0.1910 0.3124 -0.465 0.172 0.869 96 156 84
0.4030 0.1275 0.4171 -0.465 0.172 0.869 96 156 84
0.1858 0.3200 0.4514 -0.870 0.110 0.480 96 156 84
0.0800 0.3200 0.2598 -0.870 0.110 0.480 96 156 84
0.0649 0.1523 0.2708 -0.870 0.110 0.480 96 156 84
0.1858 0.3200 0.4514 0.001 -0.733 0.680 96 156 84
0.0649 0.1523 0.2708 0.001 -0.733 0.680 96 156 84
0.2310 0.1910 0.3124 0.001 -0.733 0.680 96 156 84
0.0800 0.3200 0.2598 -0.535 -0.648 0.542 96 156 84
-0.0818 0.3200 0.1000 -0.535 -0.648 0.542 96 156 84
0.0754 0.1903 0.1000 -0.535 -0.648 0.542 96 156 84
0.0800 0.3200 0.2598 -0.995 0.087 -0.041 96 156 84
0.0754 0.1903 0.1000 -0.995 0.087 -0.041 96 156 84
0.0649 0.1523 0.2708 -0.995 0.087 -0.041 96 156 84
-0.0818 0.3200 0.1000 -0.839 -0.469 -0.277 96 156 84
-0.0080 0.3200 -0.1238 -0.839 -0.469 -0.277 96 156 84
0.0670 0.1537 -0.0693 -0.839 -0.469 -0.277 96 156 84
-0.0818 0.3200 0.1000 -0.624 -0.757 0.194 96 156 84
0.0670 0.1537 -0.0693 -0.624 -0.757 0.194 96 156 84
0.0754 0.1903 0.1000 -0.624 -0.757 0.194 96 156 84
-0.0080 0.3200 -0.1238 -0.051 0.387 -0.921 96 156 84
0.2231 0.3200 -0.1366 -0.051 0.387 -0.921 96 156 84
0.1974 0.1284 -0.2157 -0.051 0.387 -0.921 96 156 84
-0.0080 0.3200 -0.1238 -0.692 -0.487 -0.533 96 156 84
0.1974 0.1284 -0.2157 -0.692 -0.487 -0.533 96 156 84
0.0670 0.1537 -0.0693 -0.692 -0.487 -0.533 96 156 84
0.2231 0.3200 -0.1366 -0.260 -0.365 -0.894 96 156 84
0.3929 0.3200 -0.1859 -0.260 -0.365 -0.894 96 156 84
0.3729 0.1838 -0.1244 -0.260 -0.365 -0.894 96 156 84
0.2231 0.3200 -0.1366 0.358 0.315 -0.879 96 156 84
0.3729 0.1838 -0.1244 0.358 0.315 -0.879 96 156 84
0.1974 0.1284 -0.2157 0.358 0.315 -0.879 96 156 84
0.3929 0.3200 -0.1859 0.394 -0.641 -0.659 96 156 84
0.5578 0.3200 -0.0873 0.394 -0.641 -0.659 96 156 84
0.4691 0.1993 -0.0228 0.394 -0.641 -0.659 96 156 84
0.3929 0.3200 -0.1859 0.701 -0.376 -0.606 96 156 84
0.4691 0.1993 -0.0228 0.701 -0.376 -0.606 96 156 84
0.3729 0.1838 -0.1244 0.701 -0.376 -0.606 96 156 84
0.5578 0.3200 -0.0873 0.857 -0.503 -0.114 96 156 84
0.5827 0.3200 0.1000 0.857 -0.503 -0.114 96 156 84
0.5111 0.1981 0.1000 0.857 -0.503 -0.114 96 156 84
0.5578 0.3200 -0.0873 0.711 -0.657 -0.250 96 156 84
0.5111 0.1981 0.1000 0.711 -0.657 -0.250 96 156 84
0.4691 0.1993 -0.0228 0.711 -0.657 -0.250 96 156 84
0.5111 0.1981 0.1000 0.858 -0.498 -0.127 96 156 84
0.5158 0.1660 0.2568 0.858 -0.498 -0.127 96 156 84
0.4320 0.0374 0.1959 0.858 -0.498 -0.127 96 156 84
0.5111 0.1981 0.1000 0.683 -0.591 -0.428 96 156 84
0.4320 0.0374 0.1959 0.683 -0.591 -0.428 96 156 84
0.4267 0.1006 0.1000 0.683 -0.591 -0.428 96 156 84
0.5158 0.1660 0.2568 0.304 -0.952 -0.015 96 156 84
0.4030 0.1275 0.4171 0.304 -0.952 -0.015 96 156 84
0.3375 0.1097 0.2155 0.304 -0.952 -0.015 96 156 84
0.5158 0.1660 0.2568 -0.096 -0.374 0.922 96 156 84
0.3375 0.1097 0.2155 -0.096 -0.374 0.922 96 156 84
0.4320 0.0374 0.1959 -0.096 -0.374 0.922 96 156 84
0.4030 0.1275 0.4171 -0.548 -0.677 0.490 96 156 84
0.2310 0.1910 0.3124 -0.548 -0.677 0.490 96 156 84
0.2608 0.1004 0.2206 -0.548 -0.677 0.490 96 156 84
0.4030 0.1275 0.4171 0.124 -0.991 0.047 96 156 84
0.2608 0.1004 0.2206 0.124 -0.991 0.047 96 156 84
0.3375 0.1097 0.2155 0.124 -0.991 0.047 96 156 84
0.2310 0.1910 0.3124 -0.055 -0.611 0.790 96 156 84
0.0649 0.1523 0.2708 -0.055 -0.611 0.790 96 156 84
0.1708 0.0433 0.1939 -0.055 -0.611 0.790 96 156 84
0.2310 0.1910 0.3124 0.206 -0.662 0.720 96 156 84
0.1708 0.0433 0.1939 0.206 -0.662 0.720 96 156 84
0.2608 0.1004 0.2206 0.206 -0.662 0.720 96 156 84
0.0649 0.1523 0.2708 -0.985 -0.148 -0.093 96 156 84
0.0754 0.1903 0.1000 -0.985 -0.148 -0.093 96 156 84
0.1063 -0.0155 0.1000 -0.985 -0.148 -0.093 96 156 84
0.0649 0.1523 0.2708 -0.275 -0.718 0.639 96 156 84
0.1063 -0.0155 0.1000 -0.275 -0.718 0.639 96 156 84
0.1708 0.0433 0.1939 -0.275 -0.718 0.639 96 156 84
0.0754 0.1903 0.1000 -0.732 -0.657 0.178 96 156 84
0.0670 0.1537 -0.0693 -0.732 -0.657 0.178 96 156 84
0.1757 0.0539 0.0097 -0.732 -0.657 0.178 96 156 84
0.0754 0.1903 0.1000 -0.744 -0.112 -0.658 96 156 84
0.1757 0.0539 0.0097 -0.744 -0.112 -0.658 96 156 84
0.1063 -0.0155 0.1000 -0.744 -0.112 -0.658 96 156 84
0.0670 0.1537 -0.0693 -0.425 -0.876 -0.227 96 156 84
0.1974 0.1284 -0.2157 -0.425 -0.876 -0.227 96 156 84
0.2531 0.0570 -0.0444 -0.425 -0.876 -0.227 96 156 84
0.0670 0.1537 -0.0693 -0.336 -0.782 -0.525 96 156 84
0.2531 0.0570 -0.0444 -0.336 -0.782 -0.525 96 156 84
0.1757 0.0539 0.0097 -0.336 -0.782 -0.525 96 156 84
0.1974 0.1284 -0.2157 0.517 -0.363 -0.775 96 156 84
0.3729 0.1838 -0.1244 0.517 -0.363 -0.775 96 156 84
0.3529 0.0237 -0.0627 0.517 -0.363 -0.775 96 156 84
0.1974 0.1284 -0.2157 -0.349 -0.900 -0.262 96 156 84
0.3529 0.0237 -0.0627 -0.349 -0.900 -0.262 96 156 84
0.2531 0.0570 -0.0444 -0.349 -0.900 -0.262 96 156 84
0.3729 0.1838 -0.1244 0.609 -0.631 -0.480 96 156 84
0.4691 0.1993 -0.0228 0.609 -0.631 -0.480 96 156 84
0.4031 0.0992 0.0251 0.609 -0.631 -0.480 96 156 84
0.3729 0.1838 -0.1244 0.917 -0.238 -0.320 96 156 84
0.4031 0.0992 0.0251 0.917 -0.238 -0.320 96 156 84
0.3529 0.0237 -0.0627 0.917 -0.238 -0.320 96 156 84
0.4691 0.1993 -0.0228 0.731 -0.633 -0.256 96 156 84
0.5111 0.1981 0.1000 0.731 -0.633 -0.256 96 156 84
0.4267 0.1006 0.1000 0.731 -0.633 -0.256 96 156 84
0.4691 0.1993 -0.0228 0.760 -0.609 -0.228 96 156 84
0.4267 0.1006 0.1000 0.760 -0.609 -0.228 96 156 84
0.4031 0.0992 0.0251 0.760 -0.609 -0.228 96 156 84
0.4267 0.1006 0.1000 0.300 -0.789 -0.537 96 156 84
0.4320 0.0374 0.1959 0.300 -0.789 -0.537 96 156 84
0.3000 0.0524 0.1000 0.300 -0.789 -0.537 96 156 84
0.4267 0.1006 0.1000 0.000 -0.000 1.000 96 156 84
0.3000 0.0524 0.1000 0.000 -0.000 1.000 96 156 84
0.3000 -0.0128 0.1000 0.000 -0.000 1.000 96 156 84
0.4320 0.0374 0.1959 -0.298 -0.592 0.749 96 156 84
0.3375 0.1097 0.2155 -0.298 -0.592 0.749 96 156 84
0.3000 -0.0174 0.1000 -0.298 -0.592 0.749 96 156 84
0.4320 0.0374 0.1959 0.588 -0.000 -0.809 96 156 84
0.3000 -0.0174 0.1000 0.588 -0.000 -0.809 96 156 84
0.3000 0.0524 0.1000 0.588 -0.000 -0.809 96 156 84
0.3375 0.1097 0.2155 0.122 -0.547 0.828 96 156 84
0.2608 0.1004 0.2206 0.122 -0.547 0.828 96 156 84
0.3000 -0.0733 0.1000 0.122 -0.547 0.828 96 156 84
0.3375 0.1097 0.2155 0.951 0.000 -0.309 96 156 84
0.3000 -0.0733 0.1000 0.951 0.000 -0.309 96 156 84
0.3000 -0.0174 0.1000 0.951 0.000 -0.309 96 156 84
0.2608 0.1004 0.2206 0.429 -0.836 0.341 96 156 84
0.1708 0.0433 0.1939 0.429 -0.836 0.341 96 156 84
0.3000 0.0713 0.1000 0.429 -0.836 0.341 96 156 84
0.2608 0.1004 0.2206 -0.951 -0.000 -0.309 96 156 84
0.3000 0.0713 0.1000 -0.951 -0.000 -0.309 96 156 84
0.3000 -0.0733 0.1000 -0.951 -0.000 -0.309 96 156 84
0.1708 0.0433 0.1939 0.029 -0.856 0.516 96 156 84
0.1063 -0.0155 0.1000 0.029 -0.856 0.516 96 156 84
0.3000 -0.0088 0.1000 0.029 -0.856 0.516 96 156 84
0.1708 0.0433 0.1939 0.588 -0.000 0.809 96 156 84
0.3000 -0.0088 0.1000 0.588 -0.000 0.809 96 156 84
0.3000 0.0713 0.1000 0.588 -0.000 0.809 96 156 84
0.1063 -0.0155 0.1000 -0.006 -0.790 -0.612 96 156 84
0.1757 0.0539 0.0097 -0.006 -0.790 -0.612 96 156 84
0.3000 -0.0170 0.1000 -0.006 -0.790 -0.612 96 156 84
0.1063 -0.0155 0.1000 0.000 -0.000 1.000 96 156 84
0.3000 -0.0170 0.1000 0.000 -0.000 1.000 96 156 84
0.3000 -0.0088 0.1000 0.000 -0.000 1.000 96 156 84
0.1757 0.0539 0.0097 0.029 -0.999 -0.015 96 156 84
0.2531 0.0570 -0.0444 0.029 -0.999 -0.015 96 156 84
0.3000 0.0561 0.1000 0.029 -0.999 -0.015 96 156 84
0.1757 0.0539 0.0097 0.588 -0.000 -0.809 96 156 84
0.3000 0.0561 0.1000 0.588 -0.000 -0.809 96 156 84
0.3000 -0.0170 0.1000 0.588 -0.000 -0.809 96 156 84
0.2531 0.0570 -0.0444 -0.321 -0.947 -0.026 96 156 84
0.3529 0.0237 -0.0627 -0.321 -0.947 -0.026 96 156 84
0.3000 0.0371 0.1000 -0.321 -0.947 -0.026 96 156 84
0.2531 0.0570 -0.0444 -0.951 0.000 0.309 96 156 84
0.3000 0.0371 0.1000 -0.951 0.000 0.309 96 156 84
0.3000 0.0561 0.1000 -0.951 0.000 0.309 96 156 84
0.3529 0.0237 -0.0627 0.856 -0.515 -0.047 96 156 84
0.4031 0.0992 0.0251 0.856 -0.515 -0.047 96 156 84
0.3000 -0.0792 0.1000 0.856 -0.515 -0.047 96 156 84
0.3529 0.0237 -0.0627 -0.951 -0.000 -0.309 96 156 84
0.3000 -0.0792 0.1000 -0.951 -0.000 -0.309 96 156 84
0.3000 0.0371 0.1000 -0.951 -0.000 -0.309 96 156 84
0.4031 0.0992 0.0251 0.654 -0.731 -0.192 96 156 84
0.4267 0.1006 0.1000 0.654 -0.731 -0.192 96 156 84
0.3000 -0.0128 0.1000 0.654 -0.731 -0.192 96 156 84
0.4031 0.0992 0.0251 0.588 -0.000 0.809 96 156 84
0.3000 -0.0128 0.1000 0.588 -0.000 0.809 96 156 84
0.3000 -0.0792 0.1000 0.588 -0.000 0.809 96 156 84
3 0 1 2
3 3 4 5
3 6 7 8
3 9 10 11
3 12 13 14
3 15 16 17
3 18 19 20
3 21 22 23
3 24 25 26
3 27 28 29
3 30 31 32
3 33 34 35
3 36 37 38
3 39 40 41
3 42 43 44
3 45 46 47
3 48 49 50
3 51 52 53
3 54 55 56
3 57 58 59
3 60 61 62
3 63 64 65
3 66 67 68
3 69 70 71
3 72 73 74
3 75 76 77
3 78 79 80
3 81 82 83
3 84 85 86
3 87 88 89
3 90 91 92
3 93 94 95
3 96 97 98
3 99 100 101
3 102 103 104
3 105 106 107
3 108 109 110
3 111 112 113
3 114 115 116
3 117 118 119
3 120 121 122
3 123 124 125
3 126 127 128
3 129 130 131
3 132 133 134
3 135 136 137
3 138 139 140
3 141 142 143
3 144 145 146
3 147 148 149
3 150 151 152
3 153 154 155
3 156 157 158
3 159 160 161
3 162 163 164
3 165 166 167
3 168 169 170
3 171 172 173
3 174 175 176
3 177 178 179
3 180 181 182
3 183 184 185
3 186 187 188
3 189 190 191
3 192 193 194
3 195 196 197
3 198 199 200
3 201 202 203
3 204 205 206
3 207 208 209
3 210 211 212
3 213 214 215
3 216 217 218
3 219 220 221
3 222 223 224
3 225 226 227
3 228 229 230
3 231 232 233
3 234 235 236
3 237 238 239
3 240 241 242
3 243 244 245
3 246 247 248
3 249 250 251
3 252 253 254
3 255 256 257
3 258 259 260
3 261 262 263
3 264 265 266
3 267 268 269
3 270 271 272
3 273 274 275
3 276 277 278
3 279 280 281
3 282 283 284
3 285 286 287
3 288 289 290
3 291 292 293
3 294 295 296
3 297 298 299
3 300 301 302
3 303 304 305
3 306 307 308
3 309 310 311
3 312 313 314
3 315 316 317
3 318 319 320
3 321 322 323
3 324 325 326
3 327 328 329
3 330 331 332
3 333 334 335
3 336 337 338
3 339 340 341
3 342 343 344
3 345 346 347
3 348 349 350
3 351 352 353
3 354 355 356
3 357 358 359
3 360 361 362
3 363 364 365
3 366 367 368
3 369 370 371
3 372 373 374
3 375 376 377
3 378 379 380
3 381 382 383
3 384 385 386
3 387 388 389
3 390 391 392
3 393 394 395
3 396 397 398
3 399 400 401
3 402 403 404
3 405 406 407
3 408 409 410
3 411 412 413
3 414 415 416
3 417 418 419
3 420 421 422
3 423 424 425
3 426 427 428
3 429 430 431
3 432 433 434
3 435 436 437
3 438 439 440
3 441 442 443
3 444 445 446
3 447 448 449
3 450 451 452
3 453 454 455
3 456 457 458
3 459 460 461
3 462 463 464
3 465 466 467
3 468 469 470
3 471 472 473
3 474 475 476
3 477 478 479
3 480 481 482
3 483 484 485
3 486 487 488
3 489 490 491
3 492 493 494
3 495 496 497
3 498 499 500
3 501 502 503
3 504 505 506
3 507 508 509
3 510 511 512
3 513 514 515
3 516 517 518
3 519 520 521
3 522 523 524
3 525 526 527
3 528 529 530
3 531 532 533
3 534 535 536
3 537 538 539
3 540 541 542
3 543 544 545
3 546 547 548
3 549 550 551
3 552 553 554
3 555 556 557
3 558 559 560
3 561 562 563
3 564 565 566
3 567 568 569
3 570 571 572
3 573 574 575
3 576 577 578
3 579 580 581
3 582 583 584
3 585 586 587
3 588 589 590
3 591 592 593
3 594 595 596
3 597 598 599
3 600 601 602
3 603 604 605
3 606 607 608
3 609 610 611
3 612 613 614
3 615 616 617
3 618 619 620
3 621 622 623
3 624 625 626
3 627 628 629
3 630 631 632
3 633 634 635
3 636 637 638
3 639 640 641
3 642 643 644
3 645 646 647
3 648 649 650
3 651 652 653
3 654 655 656
3 657 658 659
3 660 661 662
3 663 664 665
3 666 667 668
3 669 670 671
3 672 673 674
3 675 676 677
3 678 679 680
3 681 682 683
3 684 685 686
3 687 688 689
3 690 691 692
3 693 694 695
3 696 697 698
3 699 700 701
3 702 703 704
3 705 706 707
3 708 709 710
3 711 712 713
3 714 715 716
3 717 718 719
