ply
format ascii 1.0
element vertex 108
property float x
property float y
property float z
property float nx
property float ny
property float nz
property uchar red
property uchar green
property uchar blue
element face 36
property list uchar int vertex_indices
end_header
-0.5000 0.0000 0.5000 0.000 0.000 1.000 150 150 150
0.5000 0.0000 0.5000 0.000 0.000 1.000 150 150 150
0.5000 0.2400 0.5000 0.000 0.000 1.000 150 150 150
-0.5000 0.0000 0.5000 0.000 0.000 1.000 150 150 150
0.5000 0.2400 0.5000 0.000 0.000 1.000 150 150 150
-0.5000 0.2400 0.5000 0.000 0.000 1.000 150 150 150
0.5000 0.0000 -0.5000 0.000 0.000 -1.000 150 150 150
-0.5000 0.0000 -0.5000 0.000 0.000 -1.000 150 150 150
-0.5000 0.2400 -0.5000 0.000 0.000 -1.000 150 150 150
0.5000 0.0000 -0.5000 0.000 0.000 -1.000 150 150 150
-0.5000 0.2400 -0.5000 0.000 0.000 -1.000 150 150 150
0.5000 0.2400 -0.5000 0.000 0.000 -1.000 150 150 150
-0.5000 0.0000 -0.5000 -1.000 0.000 0.000 150 150 150
-0.5000 0.0000 0.5000 -1.000 0.000 0.000 150 150 150
-0.5000 0.2400 0.5000 -1.000 0.000 0.000 150 150 150
-0.5000 0.0000 -0.5000 -1.000 0.000 0.000 150 150 150
-0.5000 0.2400 0.5000 -1.000 0.000 0.000 150 150 150
-0.5000 0.2400 -0.5000 -1.000 0.000 0.000 150 150 150
0.5000 0.0000 0.5000 1.000 0.000 0.000 150 150 150
0.5000 0.0000 -0.5000 1.000 0.000 0.000 150 150 150
0.5000 0.2400 -0.5000 1.000 0.000 0.000 150 150 150
0.5000 0.0000 0.5000 1.000 -0.000 0.000 150 150 150
0.5000 0.2400 -0.5000 1.000 -0.000 0.000 150 150 150
0.5000 0.2400 0.5000 1.000 -0.000 0.000 150 150 150
-0.5000 0.2400 -0.5000 0.000 1.000 0.000 150 150 150
-0.5000 0.2400 0.5000 0.000 1.000 0.000 150 150 150
0.5000 0.2400 0.5000 0.000 1.000 0.000 150 150 150
-0.5000 0.2400 -0.5000 0.000 1.000 0.000 150 150 150
0.5000 0.2400 0.5000 0.000 1.000 0.000 150 150 150
0.5000 0.2400 -0.5000 0.000 1.000 0.000 150 150 150
-0.5000 0.0000 -0.5000 0.000 -1.000 0.000 150 150 150
0.5000 0.0000 -0.5000 0.000 -1.000 0.000 150 150 150
0.5000 0.0000 0.5000 0.000 -1.000 0.000 150 150 150
-0.5000 0.0000 -0.5000 0.000 -1.000 0.000 150 150 150
0.5000 0.0000 0.5000 0.000 -1.000 0.000 150 150 150
-0.5000 0.0000 0.5000 0.000 -1.000 0.000 150 150 150
-0.3000 0.2000 0.3000 0.000 0.000 1.000 150 150 150
0.3000 0.2000 0.3000 0.000 0.000 1.000 150 150 150
0.3000 0.9000 0.3000 0.000 0.000 1.000 150 150 150
-0.3000 0.2000 0.3000 0.000 0.000 1.000 150 150 150
0.3000 0.9000 0.3000 0.000 0.000 1.000 150 150 150
-0.3000 0.9000 0.3000 0.000 0.000 1.000 150 150 150
0.3000 0.2000 -0.3000 0.000 0.000 -1.000 150 150 150
-0.3000 0.2000 -0.3000 0.000 0.000 -1.000 150 150 150
-0.3000 0.9000 -0.3000 0.000 0.000 -1.000 150 150 150
0.3000 0.2000 -0.3000 0.000 0.000 -1.000 150 150 150
-0.3000 0.9000 -0.3000 0.000 0.000 -1.000 150 150 150
0.3000 0.9000 -0.3000 0.000 0.000 -1.000 150 150 150
-0.3000 0.2000 -0.3000 -1.000 0.000 0.000 150 150 150
-0.3000 0.2000 0.3000 -1.000 0.000 0.000 150 150 150
-0.3000 0.9000 0.3000 -1.000 0.000 0.000 150 150 150
-0.3000 0.2000 -0.3000 -1.000 0.000 0.000 150 150 150
-0.3000 0.9000 0.3000 -1.000 0.000 0.000 150 150 150
-0.3000 0.9000 -0.3000 -1.000 0.000 0.000 150 150 150
0.3000 0.2000 0.3000 1.000 0.000 0.000 150 150 150
0.3000 0.2000 -0.3000 1.000 0.000 0.000 150 150 150
0.3000 0.9000 -0.3000 1.000 0.000 0.000 150 150 150
0.3000 0.2000 0.3000 1.000 -0.000 0.000 150 150 150
0.3000 0.9000 -0.3000 1.000 -0.000 0.000 150 150 150
0.3000 0.9000 0.3000 1.000 -0.000 0.000 150 150 150
-0.3000 0.9000 -0.3000 0.000 1.000 0.000 150 150 150
-0.3000 0.9000 0.3000 0.000 1.000 0.000 150 150 150
0.3000 0.9000 0.3000 0.000 1.000 0.000 150 150 150
-0.3000 0.9000 -0.3000 0.000 1.000 0.000 150 150 150
0.3000 0.9000 0.3000 0.000 1.000 0.000 150 150 150
0.3000 0.9000 -0.3000 0.000 1.000 0.000 150 150 150
-0.3000 0.2000 -0.3000 0.000 -1.000 0.000 150 150 150
0.3000 0.2000 -0.3000 0.000 -1.000 0.000 150 150 150
0.3000 0.2000 0.3000 0.000 -1.000 0.000 150 150 150
-0.3000 0.2000 -0.3000 0.000 -1.000 0.000 150 150 150
0.3000 0.2000 0.3000 0.000 -1.000 0.000 150 150 150
-0.3000 0.2000 0.3000 0.000 -1.000 0.000 150 150 150
-0.4500 0.9000 0.4500 0.000 0.000 1.000 150 150 150
0.4500 0.9000 0.4500 0.000 0.000 1.000 150 150 150
0.4500 1.0800 0.4500 0.000 0.000 1.000 150 150 150
-0.4500 0.9000 0.4500 0.000 0.000 1.000 150 150 150
0.4500 1.0800 0.4500 0.000 0.000 1.000 150 150 150
-0.4500 1.0800 0.4500 0.000 0.000 1.000 150 150 150
0.4500 0.9000 -0.4500 0.000 0.000 -1.000 150 150 150
-0.4500 0.9000 -0.4500 0.000 0.000 -1.000 150 150 150
-0.4500 1.0800 -0.4500 0.000 0.000 -1.000 150 150 150
0.4500 0.9000 -0.4500 0.000 0.000 -1.000 150 150 150
-0.4500 1.0800 -0.4500 0.000 0.000 -1.000 150 150 150
0.4500 1.0800 -0.4500 0.000 0.000 -1.000 150 150 150
-0.4500 0.9000 -0.4500 -1.000 0.000 0.000 150 150 150
-0.4500 0.9000 0.4500 -1.000 0.000 0.000 150 150 150
-0.4500 1.0800 0.4500 -1.000 0.000 0.000 150 150 150
-0.4500 0.9000 -0.4500 -1.000 0.000 0.000 150 150 150
-0.4500 1.0800 0.4500 -1.000 0.000 0.000 150 150 150
-0.4500 1.0800 -0.4500 -1.000 0.000 0.000 150 150 150
0.4500 0.9000 0.4500 1.000 0.000 0.000 150 150 150
0.4500 0.9000 -0.4500 1.000 0.000 0.000 150 150 150
0.4500 1.0800 -0.4500 1.000 0.000 0.000 150 150 150
0.4500 0.9000 0.4500 1.000 -0.000 0.000 150 150 150
0.4500 1.0800 -0.4500 1.000 -0.000 0.000 150 150 150
0.4500 1.0800 0.4500 1.000 -0.000 0.000 150 150 150
-0.4500 1.0800 -0.4500 0.000 1.000 0.000 150 150 150
-0.4500 1.0800 0.4500 0.000 1.000 0.000 150 150 150
0.4500 1.0800 0.4500 0.000 1.000 0.000 150 150 150
-0.4500 1.0800 -0.4500 0.000 1.000 0.000 150 150 150
0.4500 1.0800 0.4500 0.000 1.000 0.000 150 150 150
0.4500 1.0800 -0.4500 0.000 1.000 0.000 150 150 150
-0.4500 0.9000 -0.4500 0.000 -1.000 0.000 150 150 150
0.4500 0.9000 -0.4500 0.000 -1.000 0.000 150 150 150
0.4500 0.9000 0.4500 0.000 -1.000 0.000 150 150 150
-0.4500 0.9000 -0.4500 0.000 -1.000 0.000 150 150 150
0.4500 0.9000 0.4500 0.000 -1.000 0.000 150 150 150
-0.4500 0.9000 0.4500 0.000 -1.000 0.000 150 150 150
3 0 1 2
3 3 4 5
3 6 7 8
3 9 10 11
3 12 13 14
3 15 16 17
3 18 19 20
3 21 22 23
3 24 25 26
3 27 28 29
3 30 31 32
3 33 34 35
3 36 37 38
3 39 40 41
3 42 43 44
3 45 46 47
3 48 49 50
3 51 52 53
3 54 55 56
3 57 58 59
3 60 61 62
3 63 64 65
3 66 67 68
3 69 70 71
3 72 73 74
3 75 76 77
3 78 79 80
3 81 82 83
3 84 85 86
3 87 88 89
3 90 91 92
3 93 94 95
3 96 97 98
3 99 100 101
3 102 103 104
3 105 106 107
