ply
format ascii 1.0
element vertex 21
property float x
property float y
property float z
property float nx
property float ny
property float nz
property uchar red
property uchar green
property uchar blue
element face 7
property list uchar int vertex_indices
end_header
-1.1000 0.0000 -1.3000 0.824 -0.567 0.000 212 202 180
0.0000 1.6000 -1.3000 0.824 -0.567 0.000 212 202 180
0.0000 1.6000 1.3000 0.824 -0.567 0.000 212 202 180
-1.1000 0.0000 -1.3000 0.824 -0.567 0.000 212 202 180
0.0000 1.6000 1.3000 0.824 -0.567 0.000 212 202 180
-1.1000 0.0000 1.3000 0.824 -0.567 0.000 212 202 180
1.1000 0.0000 -1.3000 -0.824 -0.567 0.000 212 202 180
1.1000 0.0000 1.3000 -0.824 -0.567 0.000 212 202 180
0.0000 1.6000 1.3000 -0.824 -0.567 0.000 212 202 180
1.1000 0.0000 -1.3000 -0.824 -0.567 0.000 212 202 180
0.0000 1.6000 1.3000 -0.824 -0.567 0.000 212 202 180
0.0000 1.6000 -1.3000 -0.824 -0.567 0.000 212 202 180
-1.1000 0.0000 -1.3000 0.000 0.000 1.000 212 202 180
1.1000 0.0000 -1.3000 0.000 0.000 1.000 212 202 180
0.0000 1.6000 -1.3000 0.000 0.000 1.000 212 202 180
-1.1000 0.0000 1.3000 0.000 0.000 -1.000 212 202 180
0.0000 1.6000 1.3000 0.000 0.000 -1.000 212 202 180
1.1000 0.0000 1.3000 0.000 0.000 -1.000 212 202 180
-0.4500 0.0000 1.3100 0.000 0.000 1.000 44 38 32
0.4500 0.0000 1.3100 0.000 0.000 1.000 44 38 32
0.0000 1.0000 1.3100 0.000 0.000 1.000 44 38 32
3 0 1 2
3 3 4 5
3 6 7 8
3 9 10 11
3 12 13 14
3 15 16 17
3 18 19 20
